<?xml version="1.0" encoding="UTF-8" standalone="no"?>
<!-- Generator: Adobe Illustrator 27.5.0, SVG Export Plug-In . SVG Version: 6.00 Build 0)  -->

<svg
   version="1.1"
   x="0px"
   y="0px"
   viewBox="0 0 500 500"
   style="enable-background:new 0 0 500 500;"
   xml:space="preserve"
   id="svg16"
   sodipodi:docname="3049282_410199-PD8Q59-641.svg"
   inkscape:version="1.3.1 (9b9bdc1480, 2023-11-25, custom)"
   xmlns:inkscape="http://www.inkscape.org/namespaces/inkscape"
   xmlns:sodipodi="http://sodipodi.sourceforge.net/DTD/sodipodi-0.dtd"
   xmlns="http://www.w3.org/2000/svg"
   xmlns:svg="http://www.w3.org/2000/svg"><defs
   id="defs16">
	
		<radialGradient
   id="SVGID_1_"
   cx="491.51431"
   cy="768.19427"
   r="34.883301"
   gradientTransform="matrix(3.3915316,0,0,0.17856723,-1424.0088,345.43224)"
   gradientUnits="userSpaceOnUse">
		<stop
   offset="0"
   style="stop-color:#000000"
   id="stop1" />
		<stop
   offset="1"
   style="stop-color:#DAE5DF"
   id="stop2" />
	</radialGradient>
	
	
</defs><sodipodi:namedview
   id="namedview16"
   pagecolor="#ffffff"
   bordercolor="#000000"
   borderopacity="0.25"
   inkscape:showpageshadow="2"
   inkscape:pageopacity="0.0"
   inkscape:pagecheckerboard="0"
   inkscape:deskcolor="#d1d1d1"
   inkscape:zoom="1.096"
   inkscape:cx="163.32117"
   inkscape:cy="396.89781"
   inkscape:window-width="1368"
   inkscape:window-height="744"
   inkscape:window-x="0"
   inkscape:window-y="0"
   inkscape:window-maximized="1"
   inkscape:current-layer="svg16"
   showgrid="false" />

<g
   id="g6"
   transform="matrix(1.7198889,0,0,1.7198889,-180.13581,-139.26792)">
		
			<linearGradient
   id="SVGID_00000026135974092665176320000008693781746853835909_"
   gradientUnits="userSpaceOnUse"
   x1="253.32201"
   y1="101.311"
   x2="253.32201"
   y2="347.4202">
			<stop
   offset="0"
   style="stop-color:#4AC14B"
   id="stop3" />
			<stop
   offset="1"
   style="stop-color:#06853A"
   id="stop4" />
		</linearGradient>
		<path
   style="clip-rule:evenodd;fill:url(#SVGID_00000026135974092665176320000008693781746853835909_);fill-rule:evenodd"
   d="m 253.328,101.311 c -68.399,0 -124.021,55.195 -124.021,123.061 0,26.913 8.768,51.857 23.621,72.151 l -15.487,45.693 47.65,-15.141 c 19.577,12.845 43.035,20.345 68.237,20.345 68.371,0 124.008,-55.2 124.008,-123.048 0,-67.866 -55.637,-123.061 -124.008,-123.061 z"
   id="path4" />
		<g
   id="g5">
			<path
   style="clip-rule:evenodd;fill:#ffffff;fill-rule:evenodd"
   d="m 393.134,223.318 c 0,77.002 -62.915,139.44 -140.526,139.44 -24.647,0 -47.803,-6.294 -67.933,-17.351 l -77.809,24.726 25.363,-74.811 c -12.799,-21.017 -20.158,-45.664 -20.158,-72.004 0,-77.018 62.915,-139.452 140.537,-139.452 77.61,0 140.526,62.434 140.526,139.452 z M 252.608,106.076 c -65.165,0 -118.157,52.586 -118.157,117.243 0,25.641 8.353,49.405 22.504,68.74 l -14.755,43.532 45.397,-14.425 c 18.651,12.238 41,19.383 65.01,19.383 65.138,0 118.145,-52.59 118.145,-117.23 10e-4,-64.658 -53.006,-117.243 -118.144,-117.243 z m 70.963,149.36 c -0.871,-1.427 -3.169,-2.282 -6.6,-3.992 -3.447,-1.706 -20.393,-9.984 -23.546,-11.117 -3.153,-1.137 -5.467,-1.71 -7.749,1.706 -2.298,3.419 -8.902,11.121 -10.918,13.403 -2.004,2.286 -4.008,2.564 -7.455,0.855 -3.451,-1.706 -14.556,-5.328 -27.708,-16.957 -10.234,-9.073 -17.148,-20.254 -19.168,-23.673 -2,-3.415 -0.199,-5.264 1.507,-6.97 1.555,-1.539 3.451,-3.992 5.173,-5.98 1.726,-2.004 2.298,-3.435 3.447,-5.717 1.149,-2.282 0.577,-4.27 -0.294,-5.98 -0.855,-1.706 -7.749,-18.528 -10.624,-25.378 -2.855,-6.831 -5.729,-6.576 -7.749,-6.576 -2.004,0 -5.722,0.596 -5.722,0.596 0,0 -6.906,0.855 -10.058,4.274 -3.153,3.415 -12.051,11.693 -12.051,28.499 0,16.818 12.333,33.08 14.055,35.346 1.725,2.286 23.824,37.927 58.848,51.612 35.024,13.681 35.024,9.117 41.342,8.54 6.306,-0.556 20.377,-8.262 23.251,-16.246 2.874,-7.983 2.874,-14.83 2.019,-16.245 z m 0,0"
   id="path5" />
		</g>
	</g>

</svg>
