<?xml version="1.0" encoding="UTF-8" standalone="no"?>
<svg
   version="1.1"
   viewBox="0 0 479.4 500"
   id="svg3"
   sodipodi:docname="google-chat.svg"
   inkscape:version="1.3.1 (9b9bdc1480, 2023-11-25, custom)"
   xmlns:inkscape="http://www.inkscape.org/namespaces/inkscape"
   xmlns:sodipodi="http://sodipodi.sourceforge.net/DTD/sodipodi-0.dtd"
   xmlns="http://www.w3.org/2000/svg"
   xmlns:svg="http://www.w3.org/2000/svg">
  <defs
     id="defs3" />
  <sodipodi:namedview
     id="namedview3"
     pagecolor="#ffffff"
     bordercolor="#000000"
     borderopacity="0.25"
     inkscape:showpageshadow="2"
     inkscape:pageopacity="0.0"
     inkscape:pagecheckerboard="0"
     inkscape:deskcolor="#d1d1d1"
     inkscape:zoom="1.108"
     inkscape:cx="240.0722"
     inkscape:cy="250"
     inkscape:window-width="1368"
     inkscape:window-height="750"
     inkscape:window-x="0"
     inkscape:window-y="0"
     inkscape:window-maximized="1"
     inkscape:current-layer="svg3" />
  <path
     fill="#00AC47"
     d="M108.8,269.7V107.2h-71C16.9,107.2,0,124.2,0,145.1V481c0,16.9,20.4,25.3,32.3,13.4l78.1-78.1h222.4 c20.9,0,37.8-16.9,37.8-37.8v-71H146.7C125.8,307.5,108.8,290.6,108.8,269.7z"
     id="path1"
     style="fill:#cccccc" />
  <path
     fill="#5BB974"
     d="M441.6,0H146.7c-20.9,0-37.8,16.9-37.8,37.8v69.4h223.9c20.9,0,37.8,16.9,37.8,37.8v162.4h71 c20.9,0,37.8-16.9,37.8-37.8V37.8C479.4,16.9,462.5,0,441.6,0z"
     id="path2"
     style="fill:#8a8a8a;fill-opacity:1" />
  <path
     fill="#00832D"
     d="M332.8,107.2H108.8v162.4c0,20.9,16.9,37.8,37.8,37.8h223.9V145.1C370.6,124.2,353.7,107.2,332.8,107.2z"
     id="path3"
     style="fill:#858585;fill-opacity:1" />
</svg>
