<?xml version="1.0"?>
<svg xmlns="http://www.w3.org/2000/svg" version="1.1" viewBox="0 0 1416.4606148180333 574.1510376262041" width="4249.381844454099" height="1722.4531128786125">
<rect x="0" y="0" width="1416.4606148180333" height="574.1510376262041" fill="#ffffff"/><g stroke-linecap="round" transform="translate(10 10.48187046750104) rotate(0 99.74718677271665 34.21280319257431)"><path d="M4.55 3.96 C4.55 3.96, 4.55 3.96, 4.55 3.96 M4.55 3.96 C4.55 3.96, 4.55 3.96, 4.55 3.96 M0.36 14.88 C4.25 7.95, 9.46 3.87, 12.82 0.54 M0.36 14.88 C2.86 12.75, 5.9 9.03, 12.82 0.54 M0.75 20.53 C4.8 13.47, 8.05 8.67, 18.46 0.15 M0.75 20.53 C5.9 15, 10.27 8.64, 18.46 0.15 M0.49 26.93 C9.21 16.45, 16.94 8.61, 24.11 -0.24 M0.49 26.93 C7.65 19.78, 14.38 10.77, 24.11 -0.24 M0.23 33.32 C8.15 27.26, 15.05 18.84, 29.09 0.12 M0.23 33.32 C9.45 24.3, 16.11 15.33, 29.09 0.12 M0.62 38.97 C13 22.3, 27.68 7.48, 34.74 -0.28 M0.62 38.97 C9.77 26.78, 20.55 16.97, 34.74 -0.28 M0.36 45.36 C10.74 31.06, 24.07 19.97, 39.72 0.08 M0.36 45.36 C10.9 32.82, 24 18.42, 39.72 0.08 M0.76 51.01 C16.04 33.69, 34.24 14.25, 44.71 0.44 M0.76 51.01 C8.78 41.17, 17.94 30.78, 44.71 0.44 M1.15 56.65 C11.32 46.17, 20.4 32.95, 50.35 0.05 M1.15 56.65 C18.27 36.75, 36.79 16.37, 50.35 0.05 M2.2 61.54 C18.16 42.54, 36.6 21.76, 55.34 0.41 M2.2 61.54 C15.22 47.86, 27.09 33.61, 55.34 0.41 M5.22 64.16 C26.4 39.23, 48.25 15.13, 60.98 0.01 M5.22 64.16 C19.29 48.32, 31.65 33.4, 60.98 0.01 M8.24 66.79 C23.89 49.65, 34.85 36.31, 65.97 0.37 M8.24 66.79 C20.13 51.66, 34.36 37.34, 65.97 0.37 M12.57 67.9 C36.51 42.35, 55.53 15.68, 71.61 -0.02 M12.57 67.9 C27.26 52.31, 38.59 36.95, 71.61 -0.02 M17.56 68.26 C36.81 43.87, 57.62 20.8, 76.6 0.34 M17.56 68.26 C40.15 42.01, 63.09 16.53, 76.6 0.34 M22.54 68.62 C40.76 45.82, 58.35 27.89, 82.24 -0.06 M22.54 68.62 C41.28 47.53, 60.56 25.23, 82.24 -0.06 M28.19 68.23 C39.56 56.14, 51.99 42.33, 87.23 0.3 M28.19 68.23 C42.42 52.92, 53.4 37.96, 87.23 0.3 M33.17 68.59 C53.18 45.83, 69.06 25.42, 92.87 -0.09 M33.17 68.59 C47.5 51.89, 59.93 35.89, 92.87 -0.09 M38.16 68.95 C62 42.2, 85.84 14.56, 97.86 0.27 M38.16 68.95 C60.75 44.2, 82.25 20.1, 97.86 0.27 M43.8 68.55 C61.04 46.76, 75.65 29.8, 103.5 -0.13 M43.8 68.55 C57.23 53.87, 68.83 39.87, 103.5 -0.13 M48.79 68.91 C61.67 53.46, 77.61 34.89, 108.49 0.23 M48.79 68.91 C69.97 43.68, 92.72 20.1, 108.49 0.23 M54.43 68.52 C71.16 46.23, 92.22 27.58, 114.13 -0.16 M54.43 68.52 C68.06 52.35, 80.73 38.05, 114.13 -0.16 M59.42 68.88 C77.31 48.62, 93.76 30.61, 119.12 0.2 M59.42 68.88 C76.18 48.74, 92.48 30.66, 119.12 0.2 M65.06 68.48 C81.49 53.02, 94.94 35.55, 124.76 -0.19 M65.06 68.48 C85.33 45.32, 105.97 22.25, 124.76 -0.19 M70.05 68.84 C95.4 42.84, 119.42 12.08, 129.75 0.17 M70.05 68.84 C87.77 46.91, 106.43 26.6, 129.75 0.17 M75.69 68.45 C95.67 42.64, 116.44 19.03, 135.39 -0.23 M75.69 68.45 C96.82 44.57, 116.49 21.38, 135.39 -0.23 M80.68 68.81 C100.31 47.25, 116.56 24.62, 140.38 0.13 M80.68 68.81 C102.16 43.11, 123.71 19.47, 140.38 0.13 M86.32 68.41 C100.69 51.67, 115.76 34.9, 146.02 -0.26 M86.32 68.41 C108 42.48, 131 17.08, 146.02 -0.26 M91.31 68.77 C107.41 51.57, 124.85 32.29, 151.01 0.1 M91.31 68.77 C105.86 49.91, 121.69 34.05, 151.01 0.1 M96.95 68.38 C116.79 44.21, 139.6 22.17, 156 0.46 M96.95 68.38 C112.58 51.39, 127.47 34.45, 156 0.46 M101.94 68.74 C121.84 45.49, 140.63 26.09, 161.64 0.06 M101.94 68.74 C122.41 45.92, 141.75 23.54, 161.64 0.06 M107.58 68.35 C121.76 52.65, 136.08 35.48, 166.63 0.42 M107.58 68.35 C127.66 46.39, 146.66 23.2, 166.63 0.42 M112.57 68.71 C130.7 49.47, 149.2 26.83, 172.27 0.03 M112.57 68.71 C127.13 51.42, 142.38 33.58, 172.27 0.03 M118.21 68.31 C135.27 48.97, 148.93 28.51, 177.26 0.39 M118.21 68.31 C133.99 50.2, 150.04 31.79, 177.26 0.39 M123.2 68.67 C137.38 51.66, 146.94 38.57, 182.9 -0.01 M123.2 68.67 C136.37 55.54, 148.05 41.05, 182.9 -0.01 M128.84 68.28 C140.78 53.27, 157.11 37.08, 187.23 1.11 M128.84 68.28 C144.89 48.69, 162.29 30.57, 187.23 1.11 M133.83 68.64 C149.25 48.9, 164.53 34.18, 191.56 2.22 M133.83 68.64 C148.9 48.52, 166.26 30.15, 191.56 2.22 M139.47 68.24 C152.16 54.72, 164.23 36.52, 194.58 4.85 M139.47 68.24 C154.74 50.91, 170.27 34.49, 194.58 4.85 M144.46 68.6 C154.86 55.31, 165.47 43.85, 197.6 7.47 M144.46 68.6 C160.28 49.77, 176.72 29.36, 197.6 7.47 M150.1 68.21 C169.31 45.86, 189.66 24.09, 199.31 11.6 M150.1 68.21 C163.46 53.84, 176 39.65, 199.31 11.6 M155.09 68.57 C166.09 58.69, 174.33 46.42, 199.05 18 M155.09 68.57 C164.99 57.45, 174.47 46.15, 199.05 18 M160.08 68.93 C166.73 61.18, 177.2 49.75, 198.79 24.4 M160.08 68.93 C175.38 51.39, 189.54 34.95, 198.79 24.4 M165.72 68.53 C174.51 61.57, 180.02 52.52, 199.18 30.04 M165.72 68.53 C174.96 58.64, 183.88 48.7, 199.18 30.04 M170.71 68.89 C182.83 55.56, 190.63 47.35, 198.92 36.44 M170.71 68.89 C179.5 59.04, 189.41 47.77, 198.92 36.44 M176.35 68.5 C184.19 61.16, 193.82 48.73, 198.66 42.84 M176.35 68.5 C180.6 63.54, 185.44 58.06, 198.66 42.84 M181.34 68.86 C185.93 62.41, 192.32 56.29, 198.4 49.24 M181.34 68.86 C185.2 64.68, 190.38 58.73, 198.4 49.24 M187.64 67.71 C191.71 63.49, 193.79 61.54, 198.79 54.88 M187.64 67.71 C191.75 63.08, 196.56 58.02, 198.79 54.88" stroke="#a5d8ff" stroke-width="0.5" fill="none"/><path d="M17.11 0 C63.45 1.13, 110.43 -1.06, 182.39 0 M17.11 0 C70.31 0.49, 123.2 1.27, 182.39 0 M182.39 0 C194.12 0.37, 197.5 6.07, 199.49 17.11 M182.39 0 C194.8 -1.92, 201.07 4.72, 199.49 17.11 M199.49 17.11 C198.25 31.1, 198.95 42.45, 199.49 51.32 M199.49 17.11 C200.17 28.21, 199.39 38.58, 199.49 51.32 M199.49 51.32 C197.83 62.51, 193.47 67.38, 182.39 68.43 M199.49 51.32 C197.83 60.44, 192.39 70.27, 182.39 68.43 M182.39 68.43 C123.66 66.04, 66.38 68.74, 17.11 68.43 M182.39 68.43 C146.81 68.93, 113.24 68.6, 17.11 68.43 M17.11 68.43 C5.07 68.6, 0.99 61.52, 0 51.32 M17.11 68.43 C5.65 66.33, 0.83 64.35, 0 51.32 M0 51.32 C0.27 40.06, 0.83 27.44, 0 17.11 M0 51.32 C0.31 39.44, -0.52 28.81, 0 17.11 M0 17.11 C-1.1 4.54, 5.96 0.53, 17.11 0 M0 17.11 C-0.03 6.84, 6.15 0.64, 17.11 0" stroke="#1e1e1e" stroke-width="1" fill="none"/></g><g transform="translate(76.40311633814633 34.69467366007541) rotate(0 33.34407043457031 10)"><switch style="white-space: pre;"><text x="33.34407043457031" y="0" font-family="Virgil, Segoe UI Emoji" font-size="16px" fill="#1e1e1e" text-anchor="middle" style="white-space: pre;" direction="ltr" dominant-baseline="text-before-edge" id="trsvg10-uk" systemLanguage="uk"><tspan id="trsvg1-uk">&#x41F;&#x438;&#x442;&#x430;&#x43D;&#x43D;&#x44F;</tspan></text><text x="33.34407043457031" y="0" font-family="Virgil, Segoe UI Emoji" font-size="16px" fill="#1e1e1e" text-anchor="middle" style="white-space: pre;" direction="ltr" dominant-baseline="text-before-edge" id="trsvg10"><tspan id="trsvg1">Question</tspan></text></switch></g><g stroke-linecap="round" transform="translate(10 211.9037258829386) rotate(0 99.74718677271665 34.21280319257431)"><path d="M4.55 3.96 C4.55 3.96, 4.55 3.96, 4.55 3.96 M4.55 3.96 C4.55 3.96, 4.55 3.96, 4.55 3.96 M0.36 14.88 C6.3 8.23, 11.08 2.96, 12.82 0.54 M0.36 14.88 C4.1 10.48, 6.59 8.34, 12.82 0.54 M0.75 20.53 C6.58 15.93, 10.97 9.76, 18.46 0.15 M0.75 20.53 C6.27 14.94, 10.87 7.37, 18.46 0.15 M0.49 26.93 C8.16 19.9, 13.96 14.94, 24.11 -0.24 M0.49 26.93 C6.94 19.31, 13.82 11.61, 24.11 -0.24 M0.23 33.32 C7.58 23.11, 16.56 13.03, 29.09 0.12 M0.23 33.32 C5.35 25.78, 12.34 18.87, 29.09 0.12 M0.62 38.97 C13.01 25.56, 27.17 11.31, 34.74 -0.28 M0.62 38.97 C9.3 27.77, 17.5 17.76, 34.74 -0.28 M0.36 45.36 C8.45 33.07, 16.85 25.76, 39.72 0.08 M0.36 45.36 C8.28 35.34, 16.99 26.25, 39.72 0.08 M0.76 51.01 C12.67 37.64, 25.55 24.51, 44.71 0.44 M0.76 51.01 C11.47 37.35, 24.5 25.07, 44.71 0.44 M1.15 56.65 C19.69 37.78, 36.11 13.43, 50.35 0.05 M1.15 56.65 C13.38 43.61, 24.67 29.85, 50.35 0.05 M2.2 61.54 C13.73 44.42, 26.25 31.73, 55.34 0.41 M2.2 61.54 C15.07 45.11, 28.88 29.77, 55.34 0.41 M5.22 64.16 C24.43 39.35, 44.59 18.27, 60.98 0.01 M5.22 64.16 C16.78 51.01, 28.03 37.36, 60.98 0.01 M8.24 66.79 C19.69 54.22, 32.45 39.3, 65.97 0.37 M8.24 66.79 C25.64 44, 45.8 22.1, 65.97 0.37 M12.57 67.9 C28.41 47.58, 45.97 29.26, 71.61 -0.02 M12.57 67.9 C28.48 50.36, 43.11 32.18, 71.61 -0.02 M17.56 68.26 C29.44 55.01, 44.61 37.83, 76.6 0.34 M17.56 68.26 C34.58 48.83, 53.59 26.94, 76.6 0.34 M22.54 68.62 C38.89 46.98, 58.99 26.41, 82.24 -0.06 M22.54 68.62 C34.91 53.74, 48.48 37.33, 82.24 -0.06 M28.19 68.23 C48.71 42.99, 73.04 15.29, 87.23 0.3 M28.19 68.23 C46.89 47.31, 64.55 27.07, 87.23 0.3 M33.17 68.59 C48.54 52.14, 63.73 35.55, 92.87 -0.09 M33.17 68.59 C46.54 54.2, 57.62 39.02, 92.87 -0.09 M38.16 68.95 C54.62 47.46, 74.53 29.43, 97.86 0.27 M38.16 68.95 C60.47 42.54, 83.52 17.57, 97.86 0.27 M43.8 68.55 C62.98 45.34, 83.25 24.86, 103.5 -0.13 M43.8 68.55 C61.51 47.12, 78.69 27.53, 103.5 -0.13 M48.79 68.91 C59.79 53.37, 74.78 39.19, 108.49 0.23 M48.79 68.91 C67.27 48.08, 85.53 28.56, 108.49 0.23 M54.43 68.52 C68.87 51.24, 84.46 33.84, 114.13 -0.16 M54.43 68.52 C70.19 51.48, 85.17 32.27, 114.13 -0.16 M59.42 68.88 C76.28 47.51, 98.66 25.67, 119.12 0.2 M59.42 68.88 C80.11 45.53, 102.12 19.83, 119.12 0.2 M65.06 68.48 C77.2 55.22, 89.36 40.57, 124.76 -0.19 M65.06 68.48 C87.27 41.94, 111.75 14.72, 124.76 -0.19 M70.05 68.84 C82.54 53.28, 96.25 37.35, 129.75 0.17 M70.05 68.84 C90.89 45.46, 110.91 21.47, 129.75 0.17 M75.69 68.45 C94.14 48.52, 110.02 26.22, 135.39 -0.23 M75.69 68.45 C94.69 48, 111.75 25.96, 135.39 -0.23 M80.68 68.81 C97.11 49.33, 112.34 32.34, 140.38 0.13 M80.68 68.81 C104.32 40.24, 127.4 13.43, 140.38 0.13 M86.32 68.41 C102.4 49.63, 118.06 32.03, 146.02 -0.26 M86.32 68.41 C105.12 43.91, 126.12 20.45, 146.02 -0.26 M91.31 68.77 C106 52.98, 118.28 37.86, 151.01 0.1 M91.31 68.77 C113.06 45.21, 134.23 19.99, 151.01 0.1 M96.95 68.38 C116.75 45.58, 139.6 20.08, 156 0.46 M96.95 68.38 C115.72 45.25, 137.34 21.32, 156 0.46 M101.94 68.74 C123.39 42.12, 148.26 13.83, 161.64 0.06 M101.94 68.74 C125.31 41.93, 146.62 15.73, 161.64 0.06 M107.58 68.35 C122.69 52.33, 139.34 31.04, 166.63 0.42 M107.58 68.35 C124.61 47.94, 142.65 29.05, 166.63 0.42 M112.57 68.71 C132.23 45.84, 148.38 27.59, 172.27 0.03 M112.57 68.71 C133.84 44.53, 155.56 19.12, 172.27 0.03 M118.21 68.31 C131.87 53.45, 145.94 34.23, 177.26 0.39 M118.21 68.31 C134.86 49.11, 150.56 30.06, 177.26 0.39 M123.2 68.67 C139.68 49.72, 155.59 29.29, 182.9 -0.01 M123.2 68.67 C141.05 50.24, 156.77 31.6, 182.9 -0.01 M128.84 68.28 C145.8 47.15, 165 24.52, 187.23 1.11 M128.84 68.28 C147.4 47.42, 164.68 27.78, 187.23 1.11 M133.83 68.64 C154.11 46.85, 174.3 24.41, 191.56 2.22 M133.83 68.64 C148.49 50.08, 165.67 32.82, 191.56 2.22 M139.47 68.24 C157.07 50.64, 171.87 31.07, 194.58 4.85 M139.47 68.24 C155.91 50.73, 170.2 30.8, 194.58 4.85 M144.46 68.6 C165.87 44.74, 186.13 23.58, 197.6 7.47 M144.46 68.6 C163.27 47.27, 182.17 24.49, 197.6 7.47 M150.1 68.21 C161.39 57.57, 169.32 45.41, 199.31 11.6 M150.1 68.21 C164.73 50.91, 180.43 35.09, 199.31 11.6 M155.09 68.57 C164.66 58.77, 173.41 47.67, 199.05 18 M155.09 68.57 C168.54 52.53, 180.79 37.55, 199.05 18 M160.08 68.93 C176.55 51.71, 190.4 34.45, 198.79 24.4 M160.08 68.93 C170.33 55.09, 181.88 43.64, 198.79 24.4 M165.72 68.53 C172.46 57.05, 183.68 49.06, 199.18 30.04 M165.72 68.53 C177.68 53.53, 192.43 37.53, 199.18 30.04 M170.71 68.89 C178.62 61.07, 183.75 54.53, 198.92 36.44 M170.71 68.89 C181.19 57.51, 189.64 46.9, 198.92 36.44 M176.35 68.5 C185.44 59.68, 190.2 53.44, 198.66 42.84 M176.35 68.5 C184.85 59.01, 193.84 47.39, 198.66 42.84 M181.34 68.86 C187.22 63.92, 187.87 58.95, 198.4 49.24 M181.34 68.86 C185.64 63.27, 190.68 57.69, 198.4 49.24 M187.64 67.71 C191.51 61.86, 196.42 57.36, 198.79 54.88 M187.64 67.71 C190.09 63.75, 193.9 61.89, 198.79 54.88" stroke="#d0bfff" stroke-width="0.5" fill="none"/><path d="M17.11 0 C56.05 2.53, 96.86 2.27, 182.39 0 M17.11 0 C75.49 -0.28, 133.32 -0.06, 182.39 0 M182.39 0 C193.05 -1.76, 199.51 5.08, 199.49 17.11 M182.39 0 C191.75 -1.59, 198.23 5.16, 199.49 17.11 M199.49 17.11 C198.49 31.57, 200.74 43.33, 199.49 51.32 M199.49 17.11 C199.05 24.59, 198.4 31.36, 199.49 51.32 M199.49 51.32 C199.47 62.28, 192.38 69.23, 182.39 68.43 M199.49 51.32 C199.32 63.84, 194.57 67.13, 182.39 68.43 M182.39 68.43 C128.43 69.42, 77.17 70.3, 17.11 68.43 M182.39 68.43 C135.56 67.57, 90.3 67.99, 17.11 68.43 M17.11 68.43 C7.29 69.09, -0.37 61.34, 0 51.32 M17.11 68.43 C3.97 70.42, 0.25 61.34, 0 51.32 M0 51.32 C-1.48 38.06, -1.8 27.42, 0 17.11 M0 51.32 C0.67 42.39, -0.87 34.91, 0 17.11 M0 17.11 C0.57 5.36, 4.64 1.72, 17.11 0 M0 17.11 C-1.14 4.36, 7.09 0.63, 17.11 0" stroke="#1e1e1e" stroke-width="1" fill="none"/></g><g transform="translate(79.80312549341977 236.11652907551297) rotate(0 29.944061279296875 10)"><switch style="white-space: pre;"><text x="29.944061279296875" y="0" font-family="Virgil, Segoe UI Emoji" font-size="16px" fill="#1e1e1e" text-anchor="middle" style="white-space: pre;" direction="ltr" dominant-baseline="text-before-edge" id="trsvg11-uk" systemLanguage="uk"><tspan id="trsvg2-uk">&#x41A;&#x43E;&#x434;&#x443;&#x432;&#x430;&#x43B;&#x44C;&#x43D;&#x438;&#x43A;</tspan></text><text x="29.944061279296875" y="0" font-family="Virgil, Segoe UI Emoji" font-size="16px" fill="#1e1e1e" text-anchor="middle" style="white-space: pre;" direction="ltr" dominant-baseline="text-before-edge" id="trsvg11"><tspan id="trsvg2">Encoder</tspan></text></switch></g><g stroke-linecap="round" transform="translate(316.46961733066587 353.8145785619971) rotate(0 99.74718677271665 34.21280319257431)"><path d="M4.55 3.96 C4.55 3.96, 4.55 3.96, 4.55 3.96 M4.55 3.96 C4.55 3.96, 4.55 3.96, 4.55 3.96 M1.01 14.13 C4.92 11.29, 7.26 5.87, 11.51 2.05 M1.01 14.13 C4.09 11.14, 6.81 6.42, 11.51 2.05 M1.41 19.77 C6.6 12.11, 11.91 8.27, 17.81 0.9 M1.41 19.77 C7.75 14.05, 12.84 5.94, 17.81 0.9 M1.14 26.17 C7.64 21.43, 12.6 10.88, 23.45 0.51 M1.14 26.17 C7.66 19.06, 12.18 12.81, 23.45 0.51 M0.88 32.57 C9.16 24.3, 14.79 17.1, 28.44 0.87 M0.88 32.57 C11.17 19.83, 21.77 6.81, 28.44 0.87 M1.28 38.21 C12.35 25.04, 25.63 12.32, 34.08 0.48 M1.28 38.21 C9.64 28.44, 18.9 19.2, 34.08 0.48 M1.02 44.61 C13.89 31.13, 26.92 11.73, 39.07 0.84 M1.02 44.61 C8.01 36.44, 15.55 26.2, 39.07 0.84 M1.41 50.25 C14.07 39.52, 22.6 24.38, 44.71 0.44 M1.41 50.25 C12.19 38.36, 22.52 26.39, 44.71 0.44 M1.15 56.65 C12.07 45.09, 23.21 32.24, 49.7 0.8 M1.15 56.65 C18.84 37.65, 33.64 17.37, 49.7 0.8 M2.86 60.78 C18.91 42.34, 36.48 20.46, 55.34 0.41 M2.86 60.78 C21.66 39.99, 39.1 20.68, 55.34 0.41 M5.22 64.16 C17.02 49.58, 27.41 38.76, 60.33 0.77 M5.22 64.16 C22.84 43.6, 39.09 25.2, 60.33 0.77 M8.24 66.79 C30.07 42.77, 49.83 16.83, 65.97 0.37 M8.24 66.79 C27.19 46.53, 44.73 25.37, 65.97 0.37 M11.26 69.41 C26.9 53.94, 38.57 36.96, 70.96 0.73 M11.26 69.41 C30.92 47.86, 51.21 24.82, 70.96 0.73 M17.56 68.26 C39.76 44.12, 60.06 21.06, 75.95 1.09 M17.56 68.26 C36.25 47.24, 55.91 25.34, 75.95 1.09 M22.54 68.62 C33.75 53.01, 45.03 39.29, 81.59 0.7 M22.54 68.62 C39.88 46.3, 58.55 24.58, 81.59 0.7 M28.19 68.23 C43.18 52.8, 56.89 34.33, 86.58 1.06 M28.19 68.23 C51.45 42.08, 74.48 14.26, 86.58 1.06 M33.17 68.59 C45.34 53.81, 55.48 39.86, 92.22 0.66 M33.17 68.59 C52.96 45.21, 73.64 22.19, 92.22 0.66 M38.16 68.95 C57.96 43.7, 78.01 21.49, 97.21 1.02 M38.16 68.95 C56.55 49.09, 74.05 29.8, 97.21 1.02 M43.8 68.55 C64.34 46.54, 78.93 26.92, 102.85 0.63 M43.8 68.55 C65.56 43.34, 86.34 19.75, 102.85 0.63 M48.79 68.91 C72.27 43.94, 94.6 18.23, 107.84 0.99 M48.79 68.91 C67.36 48.7, 83.79 28.16, 107.84 0.99 M54.43 68.52 C74.86 44.13, 97.07 18.11, 113.48 0.59 M54.43 68.52 C71.21 49.52, 88.03 30.72, 113.48 0.59 M59.42 68.88 C74.23 53.86, 88.93 36.69, 118.47 0.95 M59.42 68.88 C71.46 54.58, 85.05 40.48, 118.47 0.95 M65.06 68.48 C78.9 51.76, 92.37 36.66, 124.11 0.56 M65.06 68.48 C82.79 48.23, 100.26 26.53, 124.11 0.56 M70.05 68.84 C81.99 53.43, 95.64 38.91, 129.1 0.92 M70.05 68.84 C92.02 45.62, 111.12 20.18, 129.1 0.92 M75.69 68.45 C91.64 50.41, 110.8 30.06, 134.74 0.53 M75.69 68.45 C96.58 43.9, 117.38 21.7, 134.74 0.53 M80.68 68.81 C99.62 45.67, 118.37 24.86, 139.73 0.89 M80.68 68.81 C102.56 45.03, 121.44 21.31, 139.73 0.89 M86.32 68.41 C106.66 43.31, 124.18 22.1, 145.37 0.49 M86.32 68.41 C103.26 49.77, 119.37 31.05, 145.37 0.49 M91.31 68.77 C106.79 53.32, 119.62 38.66, 150.36 0.85 M91.31 68.77 C113.9 43.28, 135.38 17.88, 150.36 0.85 M96.95 68.38 C120.5 41.81, 142.04 16.37, 156 0.46 M96.95 68.38 C110.31 52.31, 123.78 36.98, 156 0.46 M101.94 68.74 C122.81 46.26, 143.7 22.51, 160.99 0.82 M101.94 68.74 C119.48 50.42, 136.29 30.62, 160.99 0.82 M107.58 68.35 C130.19 45.56, 149.23 22.05, 166.63 0.42 M107.58 68.35 C126.4 45.96, 146.58 25.41, 166.63 0.42 M112.57 68.71 C128.26 50.88, 143.8 30.72, 171.62 0.78 M112.57 68.71 C128.84 50.5, 146.49 30.64, 171.62 0.78 M118.21 68.31 C139.66 42.8, 164.25 16.59, 177.26 0.39 M118.21 68.31 C137.4 46.78, 156.33 22.95, 177.26 0.39 M123.2 68.67 C147.74 41.14, 171.54 15.82, 182.9 -0.01 M123.2 68.67 C139.68 50.16, 156 32.5, 182.9 -0.01 M128.84 68.28 C141.59 51.33, 157.45 35.61, 187.23 1.11 M128.84 68.28 C151.82 41.13, 174.8 15.17, 187.23 1.11 M133.83 68.64 C150.96 50.72, 165.94 35.26, 191.56 2.22 M133.83 68.64 C150.29 49.72, 167.35 29.62, 191.56 2.22 M139.47 68.24 C160.89 44.52, 180.68 22.22, 194.58 4.85 M139.47 68.24 C159.72 45.69, 178.36 23.44, 194.58 4.85 M144.46 68.6 C154.36 55.84, 168.51 42.06, 197.6 7.47 M144.46 68.6 C160.9 51.66, 175.07 32.14, 197.6 7.47 M150.1 68.21 C163.2 50.94, 176.46 33.56, 199.31 11.6 M150.1 68.21 C167.86 49.14, 183.41 28.9, 199.31 11.6 M155.09 68.57 C174.83 48.07, 193.47 26.71, 201.67 14.98 M155.09 68.57 C171 49.35, 187.67 31.38, 201.67 14.98 M160.08 68.93 C169.24 55.5, 183.21 43.51, 201.41 21.38 M160.08 68.93 C171.41 55.93, 181.83 43.64, 201.41 21.38 M165.72 68.53 C175.8 58.6, 187.72 45.65, 201.15 27.78 M165.72 68.53 C173.19 60.26, 181.2 50.33, 201.15 27.78 M170.71 68.89 C181.56 56.75, 190.15 44.91, 201.54 33.42 M170.71 68.89 C180.03 58.51, 189.84 45.83, 201.54 33.42 M176.35 68.5 C187.2 55.56, 195.88 45.97, 201.28 39.82 M176.35 68.5 C182.46 60.83, 188.51 54.9, 201.28 39.82 M181.34 68.86 C188.94 62.57, 194.51 55.07, 201.02 46.22 M181.34 68.86 C189.72 60.32, 196.86 51.72, 201.02 46.22 M185.01 70.73 C190.57 63.49, 196.67 57.69, 200.76 52.62 M185.01 70.73 C188.47 65.88, 191.74 61.95, 200.76 52.62" stroke="#d0bfff" stroke-width="0.5" fill="none"/><path d="M17.11 0 C64.33 -0.19, 114.08 -0.67, 182.39 0 M17.11 0 C56.71 -0.24, 94.31 -0.78, 182.39 0 M182.39 0 C192.83 0.72, 200.72 7.26, 199.49 17.11 M182.39 0 C195.62 0.76, 199.07 4.11, 199.49 17.11 M199.49 17.11 C198.59 25.78, 201.63 30.88, 199.49 51.32 M199.49 17.11 C199.28 24.91, 199.08 34.1, 199.49 51.32 M199.49 51.32 C200.71 62.2, 191.91 70.28, 182.39 68.43 M199.49 51.32 C200.15 62.33, 192.58 70.4, 182.39 68.43 M182.39 68.43 C141.52 69.26, 99.42 67.82, 17.11 68.43 M182.39 68.43 C148.37 70.14, 116.85 69.93, 17.11 68.43 M17.11 68.43 C5.15 70.05, 1.38 63.64, 0 51.32 M17.11 68.43 C3.6 69.82, 0.39 60.81, 0 51.32 M0 51.32 C-1.48 37.37, -0.94 24.97, 0 17.11 M0 51.32 C0.88 38.74, 0.93 26.15, 0 17.11 M0 17.11 C1.12 6.56, 6.39 0.24, 17.11 0 M0 17.11 C0.17 6.71, 5.02 0.38, 17.11 0" stroke="#1e1e1e" stroke-width="1" fill="none"/></g><g transform="translate(386.27274282408564 378.0273817545715) rotate(0 29.944061279296875 10)"><switch style="white-space: pre;"><text x="29.944061279296875" y="0" font-family="Virgil, Segoe UI Emoji" font-size="16px" fill="#1e1e1e" text-anchor="middle" style="white-space: pre;" direction="ltr" dominant-baseline="text-before-edge" id="trsvg12-uk" systemLanguage="uk"><tspan id="trsvg3-uk">&#x41A;&#x43E;&#x434;&#x443;&#x432;&#x430;&#x43B;&#x44C;&#x43D;&#x438;&#x43A;</tspan></text><text x="29.944061279296875" y="0" font-family="Virgil, Segoe UI Emoji" font-size="16px" fill="#1e1e1e" text-anchor="middle" style="white-space: pre;" direction="ltr" dominant-baseline="text-before-edge" id="trsvg12"><tspan id="trsvg3">Encoder</tspan></text></switch></g><g stroke-linecap="round" transform="translate(316.46961733066576 211.9037258829386) rotate(0 99.7471867727167 34.21280319257431)"><path d="M4.55 3.96 C4.55 3.96, 4.55 3.96, 4.55 3.96 M4.55 3.96 C4.55 3.96, 4.55 3.96, 4.55 3.96 M0.36 14.88 C2.59 11.59, 5.73 8.48, 12.82 0.54 M0.36 14.88 C4.48 11.3, 8.21 6.41, 12.82 0.54 M0.75 20.53 C5.65 12.01, 12.56 3.4, 18.46 0.15 M0.75 20.53 C5.28 13.63, 12.31 6.71, 18.46 0.15 M0.49 26.93 C9.3 15.59, 20.28 5.69, 24.11 -0.24 M0.49 26.93 C9.75 17.2, 19.12 5.19, 24.11 -0.24 M0.23 33.32 C5.78 27.07, 14.21 19.19, 29.09 0.12 M0.23 33.32 C8.47 24.21, 14 15.43, 29.09 0.12 M0.62 38.97 C9.69 29.29, 17.57 16.39, 34.74 -0.28 M0.62 38.97 C7.74 28.59, 17.2 19.37, 34.74 -0.28 M0.36 45.36 C7.59 34.42, 16.63 26.46, 39.72 0.08 M0.36 45.36 C14.35 27.97, 30.38 10.57, 39.72 0.08 M0.76 51.01 C16.86 32.43, 31.86 14.56, 44.71 0.44 M0.76 51.01 C14.14 36.46, 26.45 21.29, 44.71 0.44 M1.15 56.65 C18.69 35.39, 37.81 12.22, 50.35 0.05 M1.15 56.65 C11.5 44.11, 22.97 30.36, 50.35 0.05 M2.2 61.54 C23.14 36.94, 43.17 14.42, 55.34 0.41 M2.2 61.54 C19.78 43.31, 35.2 24.46, 55.34 0.41 M5.22 64.16 C26.26 43.62, 42.81 20.03, 60.98 0.01 M5.22 64.16 C21.23 45.77, 37.88 25.71, 60.98 0.01 M8.24 66.79 C27.9 44.89, 44.17 26.5, 65.97 0.37 M8.24 66.79 C28.96 43.6, 48.72 19.51, 65.97 0.37 M12.57 67.9 C29.32 48.95, 47.01 27.12, 71.61 -0.02 M12.57 67.9 C34.88 42.99, 57.08 16.85, 71.61 -0.02 M17.56 68.26 C37.49 44, 55.57 23.95, 76.6 0.34 M17.56 68.26 C32.62 51.43, 49.09 34.57, 76.6 0.34 M22.54 68.62 C33.74 54.1, 48.02 41.62, 82.24 -0.06 M22.54 68.62 C42.86 45, 64.74 19.59, 82.24 -0.06 M28.19 68.23 C44.87 45.78, 64.92 25.25, 87.23 0.3 M28.19 68.23 C47.04 47.12, 66.32 24.8, 87.23 0.3 M33.17 68.59 C47.41 52.44, 64.44 33.54, 92.87 -0.09 M33.17 68.59 C50.89 48.8, 68.16 28.49, 92.87 -0.09 M38.16 68.95 C61.66 43.66, 80.83 18.84, 97.86 0.27 M38.16 68.95 C62.38 42.93, 86.19 15.66, 97.86 0.27 M43.8 68.55 C67.45 45.18, 86.51 16.53, 103.5 -0.13 M43.8 68.55 C63.32 46.42, 82.24 25.19, 103.5 -0.13 M48.79 68.91 C72.93 43.9, 95.32 14.12, 108.49 0.23 M48.79 68.91 C62.47 52.9, 76.04 37.44, 108.49 0.23 M54.43 68.52 C71.98 48.2, 88.15 30.09, 114.13 -0.16 M54.43 68.52 C73.56 45.61, 91.86 24.62, 114.13 -0.16 M59.42 68.88 C74.89 50.61, 87.05 34.97, 119.12 0.2 M59.42 68.88 C78.13 46.87, 97.73 26.07, 119.12 0.2 M65.06 68.48 C80.75 46.36, 99.65 26.84, 124.76 -0.19 M65.06 68.48 C80.71 50.41, 96.67 31.89, 124.76 -0.19 M70.05 68.84 C89.77 43.98, 111.15 17.64, 129.75 0.17 M70.05 68.84 C83.79 52.36, 97.96 35.97, 129.75 0.17 M75.69 68.45 C95.43 47.86, 112.22 27.44, 135.39 -0.23 M75.69 68.45 C92.73 50.42, 108.31 31.48, 135.39 -0.23 M80.68 68.81 C104.55 43.37, 126.67 17.8, 140.38 0.13 M80.68 68.81 C100.26 47.2, 118.68 26.47, 140.38 0.13 M86.32 68.41 C107.34 41.35, 129.52 16.6, 146.02 -0.26 M86.32 68.41 C108.84 44.06, 128.79 18.28, 146.02 -0.26 M91.31 68.77 C109.2 48.1, 130.36 24.88, 151.01 0.1 M91.31 68.77 C114.04 41.17, 138.82 15.92, 151.01 0.1 M96.95 68.38 C117.56 46.53, 135.72 21.32, 156 0.46 M96.95 68.38 C113.81 49.36, 128.73 30.34, 156 0.46 M101.94 68.74 C122.04 44.78, 142.19 19.15, 161.64 0.06 M101.94 68.74 C125.42 41.54, 148.2 13.99, 161.64 0.06 M107.58 68.35 C122.89 51.13, 138.23 35.39, 166.63 0.42 M107.58 68.35 C123.9 49.38, 139.73 30.45, 166.63 0.42 M112.57 68.71 C126.08 52.49, 141.8 34.15, 172.27 0.03 M112.57 68.71 C125.78 54.04, 138.86 38.42, 172.27 0.03 M118.21 68.31 C134.32 50.79, 152.59 29.02, 177.26 0.39 M118.21 68.31 C139.91 43.66, 160.56 19.88, 177.26 0.39 M123.2 68.67 C147.22 40.97, 166.42 18.09, 182.9 -0.01 M123.2 68.67 C137.4 52.48, 152.71 35.35, 182.9 -0.01 M128.84 68.28 C146.49 48.49, 161.32 28.2, 187.23 1.11 M128.84 68.28 C152.41 41.32, 174.94 15.04, 187.23 1.11 M133.83 68.64 C147.57 53.65, 164.1 33.74, 191.56 2.22 M133.83 68.64 C156.29 43.42, 177.91 17.65, 191.56 2.22 M139.47 68.24 C159.89 41.55, 182.52 20.24, 194.58 4.85 M139.47 68.24 C151.31 54.1, 163.32 40.26, 194.58 4.85 M144.46 68.6 C163.51 44.63, 187.17 19.81, 197.6 7.47 M144.46 68.6 C157.62 53.66, 172.3 38.19, 197.6 7.47 M150.1 68.21 C168.19 49.67, 184.19 25.64, 199.31 11.6 M150.1 68.21 C167.8 47.42, 186.13 26.72, 199.31 11.6 M155.09 68.57 C167.82 52.12, 182.12 38.07, 199.05 18 M155.09 68.57 C164.85 56.53, 175.7 46.47, 199.05 18 M160.08 68.93 C174.95 53.26, 185.57 36.98, 198.79 24.4 M160.08 68.93 C171.07 54.71, 182.28 42.07, 198.79 24.4 M165.72 68.53 C173.36 59.31, 181.07 50.93, 199.18 30.04 M165.72 68.53 C176.66 55.66, 188.3 41.88, 199.18 30.04 M170.71 68.89 C175.81 62.58, 185.91 54.03, 198.92 36.44 M170.71 68.89 C181.36 56.05, 191.9 45.24, 198.92 36.44 M176.35 68.5 C184.11 60.68, 190.64 51.15, 198.66 42.84 M176.35 68.5 C184.79 59.26, 194.57 48.88, 198.66 42.84 M181.34 68.86 C189.55 62.69, 195.78 53.93, 198.4 49.24 M181.34 68.86 C186.56 62.12, 191.74 57.11, 198.4 49.24 M187.64 67.71 C189.96 62.37, 193.98 60.84, 198.79 54.88 M187.64 67.71 C190.41 64.53, 193.27 60.5, 198.79 54.88" stroke="#868e96" stroke-width="0.5" fill="none"/><path d="M17.11 0 C81.5 -0.91, 149.55 1.28, 182.39 0 M17.11 0 C79.4 -1.24, 141.3 0.32, 182.39 0 M182.39 0 C194.01 -1.2, 200.48 7.54, 199.49 17.11 M182.39 0 C191.96 -1.34, 198 3.99, 199.49 17.11 M199.49 17.11 C200.25 28.61, 198.81 35.8, 199.49 51.32 M199.49 17.11 C199.06 31.4, 199.1 43.39, 199.49 51.32 M199.49 51.32 C200.7 63.27, 193.64 68.29, 182.39 68.43 M199.49 51.32 C197.66 60.45, 194.65 69.83, 182.39 68.43 M182.39 68.43 C147.01 69.35, 111.26 71.27, 17.11 68.43 M182.39 68.43 C125.38 68.6, 68.81 68.6, 17.11 68.43 M17.11 68.43 C7.55 66.66, -1.04 61.5, 0 51.32 M17.11 68.43 C5.09 69.8, -2.14 62.66, 0 51.32 M0 51.32 C-1.03 40.26, 0.95 27.63, 0 17.11 M0 51.32 C-0.32 40.8, 0.6 29.27, 0 17.11 M0 17.11 C-1.36 4.74, 7.58 0.81, 17.11 0 M0 17.11 C2.28 5.6, 7.8 2.06, 17.11 0" stroke="#1e1e1e" stroke-width="1" fill="none"/></g><g transform="translate(349.43265493346064 236.11652907551297) rotate(0 66.78414916992188 10)"><switch style="white-space: pre;"><text x="66.78414916992188" y="0" font-family="Virgil, Segoe UI Emoji" font-size="16px" fill="#1e1e1e" text-anchor="middle" style="white-space: pre;" direction="ltr" dominant-baseline="text-before-edge" id="trsvg13-uk" systemLanguage="uk"><tspan id="trsvg4-uk">&#x412;&#x435;&#x43A;&#x442;&#x43E;&#x440;&#x43D;&#x430; &#x431;&#x430;&#x437;&#x430; &#x434;&#x430;&#x43D;&#x438;&#x445;</tspan></text><text x="66.78414916992188" y="0" font-family="Virgil, Segoe UI Emoji" font-size="16px" fill="#1e1e1e" text-anchor="middle" style="white-space: pre;" direction="ltr" dominant-baseline="text-before-edge" id="trsvg13"><tspan id="trsvg4">Vector database</tspan></text></switch></g><g stroke-linecap="round" transform="translate(316.46961733066587 495.7254312410556) rotate(0 99.74718677271665 34.212803192574256)"><path d="M4.55 3.96 C4.55 3.96, 4.55 3.96, 4.55 3.96 M4.55 3.96 C4.55 3.96, 4.55 3.96, 4.55 3.96 M0.36 14.88 C3.23 13.11, 4.66 9.8, 12.82 0.54 M0.36 14.88 C3.31 9.65, 8.01 5.22, 12.82 0.54 M0.75 20.53 C5.64 11.78, 12.72 7.39, 18.46 0.15 M0.75 20.53 C4.93 15.74, 7.99 12.34, 18.46 0.15 M0.49 26.93 C4.15 22.81, 11.89 17.89, 24.11 -0.24 M0.49 26.93 C7.65 19.03, 13.42 12.9, 24.11 -0.24 M0.23 33.32 C9.73 21.75, 17.02 14.88, 29.09 0.12 M0.23 33.32 C8.19 23.9, 17.63 14.34, 29.09 0.12 M0.62 38.97 C6.19 30.32, 13.49 23.72, 34.74 -0.28 M0.62 38.97 C9.25 28.19, 19.64 17.53, 34.74 -0.28 M0.36 45.36 C14.97 28.5, 27.66 13.07, 39.72 0.08 M0.36 45.36 C8.85 35.15, 18.11 24.18, 39.72 0.08 M0.76 51.01 C9.96 38.02, 22.48 25.87, 44.71 0.44 M0.76 51.01 C10.15 39.2, 20.16 29.67, 44.71 0.44 M1.15 56.65 C10.86 46.29, 23.13 33.93, 50.35 0.05 M1.15 56.65 C11.57 43.67, 23.17 31.56, 50.35 0.05 M2.2 61.54 C23.01 37.15, 43.8 14.73, 55.34 0.41 M2.2 61.54 C20.4 40.37, 37.16 21.55, 55.34 0.41 M5.22 64.16 C25.98 40.6, 45.84 14.88, 60.98 0.01 M5.22 64.16 C18.21 51.08, 28.66 36.16, 60.98 0.01 M8.24 66.79 C21.24 54.04, 33.07 41.29, 65.97 0.37 M8.24 66.79 C27.83 44.21, 46.93 22.82, 65.97 0.37 M12.57 67.9 C30.61 47.7, 46.38 29.08, 71.61 -0.02 M12.57 67.9 C25.77 52.48, 38.92 36.91, 71.61 -0.02 M17.56 68.26 C37.97 45.54, 54.97 23.07, 76.6 0.34 M17.56 68.26 C33.22 49.69, 50.04 31.92, 76.6 0.34 M22.54 68.62 C42.91 43.85, 67.65 17.39, 82.24 -0.06 M22.54 68.62 C35.37 54.36, 48.07 39.16, 82.24 -0.06 M28.19 68.23 C44.21 45.54, 63.3 27.73, 87.23 0.3 M28.19 68.23 C45.99 48.46, 64.67 27.7, 87.23 0.3 M33.17 68.59 C48.39 49.16, 61.58 33.78, 92.87 -0.09 M33.17 68.59 C47.5 52.1, 62.78 34.88, 92.87 -0.09 M38.16 68.95 C56.65 48.21, 74.88 28.83, 97.86 0.27 M38.16 68.95 C56.99 47.25, 75.78 25.18, 97.86 0.27 M43.8 68.55 C62.63 45.13, 84.06 20.83, 103.5 -0.13 M43.8 68.55 C64.01 46.75, 84.01 23.55, 103.5 -0.13 M48.79 68.91 C65.69 49.17, 82.42 29.26, 108.49 0.23 M48.79 68.91 C68.23 46.3, 89.48 24.06, 108.49 0.23 M54.43 68.52 C65.12 53.08, 77.83 41.39, 114.13 -0.16 M54.43 68.52 C76.37 43.21, 99.3 16.3, 114.13 -0.16 M59.42 68.88 C79.3 46.11, 99.62 20.89, 119.12 0.2 M59.42 68.88 C73.34 52.21, 89.23 35.29, 119.12 0.2 M65.06 68.48 C76.78 56.03, 89.7 38.33, 124.76 -0.19 M65.06 68.48 C76.49 55.66, 89.83 41.05, 124.76 -0.19 M70.05 68.84 C93.28 41.34, 118.75 15.43, 129.75 0.17 M70.05 68.84 C86.87 47.29, 106.27 25.81, 129.75 0.17 M75.69 68.45 C93.97 48.27, 112.92 26.58, 135.39 -0.23 M75.69 68.45 C99.16 44.16, 120.51 18.3, 135.39 -0.23 M80.68 68.81 C98.41 45.43, 117.91 26.15, 140.38 0.13 M80.68 68.81 C95.83 49.74, 113.57 31.57, 140.38 0.13 M86.32 68.41 C107.99 41.12, 134.56 15.37, 146.02 -0.26 M86.32 68.41 C105.79 44.74, 126.36 20.75, 146.02 -0.26 M91.31 68.77 C115.23 43.26, 135.78 18.46, 151.01 0.1 M91.31 68.77 C104.21 53.17, 118.08 37.98, 151.01 0.1 M96.95 68.38 C119.83 42.06, 142.01 15.66, 156 0.46 M96.95 68.38 C115.2 47.15, 132.52 27.68, 156 0.46 M101.94 68.74 C115.58 53.18, 129.35 37.73, 161.64 0.06 M101.94 68.74 C123.65 43.89, 145.52 19.02, 161.64 0.06 M107.58 68.35 C128.88 43.3, 152.64 13.85, 166.63 0.42 M107.58 68.35 C129.84 43.34, 151.43 17.55, 166.63 0.42 M112.57 68.71 C127.48 48.41, 146.43 30.51, 172.27 0.03 M112.57 68.71 C135.75 41.74, 158.83 15.27, 172.27 0.03 M118.21 68.31 C135.82 47.89, 151.36 30.93, 177.26 0.39 M118.21 68.31 C138.76 44.01, 160.92 19.36, 177.26 0.39 M123.2 68.67 C143.66 47.59, 162.66 23.33, 182.9 -0.01 M123.2 68.67 C144.34 44.35, 166.18 21.17, 182.9 -0.01 M128.84 68.28 C145.39 50.52, 157.79 33.57, 187.23 1.11 M128.84 68.28 C141.5 54.97, 154.38 41.11, 187.23 1.11 M133.83 68.64 C144.81 52.12, 160.01 39.19, 191.56 2.22 M133.83 68.64 C156.85 42.58, 179.72 15.14, 191.56 2.22 M139.47 68.24 C160.89 44.69, 180.28 19.08, 194.58 4.85 M139.47 68.24 C161.73 44.77, 182.98 19.4, 194.58 4.85 M144.46 68.6 C157.27 50.79, 172.8 36.71, 197.6 7.47 M144.46 68.6 C165.07 44.74, 185.65 21.78, 197.6 7.47 M150.1 68.21 C162.18 54.62, 177.46 37.17, 199.31 11.6 M150.1 68.21 C163.83 51.82, 177.34 37.22, 199.31 11.6 M155.09 68.57 C168.21 56.35, 179.7 40.31, 199.05 18 M155.09 68.57 C169.52 52.82, 184.38 34.72, 199.05 18 M160.08 68.93 C172.34 53.55, 185.27 42.09, 198.79 24.4 M160.08 68.93 C175.59 52.38, 190.15 35.52, 198.79 24.4 M165.72 68.53 C177.41 56.3, 185.95 43.96, 199.18 30.04 M165.72 68.53 C176.59 56.46, 187.38 43.03, 199.18 30.04 M170.71 68.89 C178.04 61.27, 185.4 53.08, 198.92 36.44 M170.71 68.89 C178.72 58.91, 186.94 48.83, 198.92 36.44 M176.35 68.5 C182.09 60.2, 191.29 52.33, 198.66 42.84 M176.35 68.5 C185.86 57.7, 193.79 48.81, 198.66 42.84 M181.34 68.86 C186.49 62.76, 190.3 58.05, 198.4 49.24 M181.34 68.86 C188.66 61.33, 195.64 54.38, 198.4 49.24 M187.64 67.71 C189.02 64.43, 192.37 60.85, 198.79 54.88 M187.64 67.71 C191.53 63.29, 194.85 59.97, 198.79 54.88" stroke="#846358" stroke-width="0.5" fill="none"/><path d="M17.11 0 C54.48 -2.02, 91.48 -0.1, 182.39 0 M17.11 0 C74.45 -1.84, 132.23 -1.84, 182.39 0 M182.39 0 C195.64 -1.77, 198.45 4.48, 199.49 17.11 M182.39 0 C193.18 1.37, 197.36 5.64, 199.49 17.11 M199.49 17.11 C198.28 30.42, 200.26 42.17, 199.49 51.32 M199.49 17.11 C199.23 27.95, 200.15 37.78, 199.49 51.32 M199.49 51.32 C198.13 61.76, 195.67 69.24, 182.39 68.43 M199.49 51.32 C201.77 62.63, 195.89 70.49, 182.39 68.43 M182.39 68.43 C136.94 67.21, 92.85 66.6, 17.11 68.43 M182.39 68.43 C135.23 69.18, 88.84 68.84, 17.11 68.43 M17.11 68.43 C3.77 67.95, 1.45 61.06, 0 51.32 M17.11 68.43 C4.37 69.11, -1.7 64.44, 0 51.32 M0 51.32 C1.29 42.58, 1.74 31.14, 0 17.11 M0 51.32 C-1.09 37.94, -1.01 24.5, 0 17.11 M0 17.11 C0.42 7.55, 5.2 -1.94, 17.11 0 M0 17.11 C-0.91 6.57, 3.93 1.84, 17.11 0" stroke="#1e1e1e" stroke-width="1" fill="none"/></g><g transform="translate(374.9447246356092 519.9382344336299) rotate(0 41.27207946777344 10)"><switch style="white-space: pre;"><text x="41.27207946777344" y="0" font-family="Virgil, Segoe UI Emoji" font-size="16px" fill="#1e1e1e" text-anchor="middle" style="white-space: pre;" direction="ltr" dominant-baseline="text-before-edge" id="trsvg14-uk" systemLanguage="uk"><tspan id="trsvg5-uk">&#x414;&#x43E;&#x43A;&#x443;&#x43C;&#x435;&#x43D;&#x442;&#x438;</tspan></text><text x="41.27207946777344" y="0" font-family="Virgil, Segoe UI Emoji" font-size="16px" fill="#1e1e1e" text-anchor="middle" style="white-space: pre;" direction="ltr" dominant-baseline="text-before-edge" id="trsvg14"><tspan id="trsvg5">Documents</tspan></text></switch></g><g stroke-linecap="round" transform="translate(622.9392346613315 101.55538882519886) rotate(0 99.74718677271665 34.21280319257431)"><path d="M4.55 3.96 C4.55 3.96, 4.55 3.96, 4.55 3.96 M4.55 3.96 C4.55 3.96, 4.55 3.96, 4.55 3.96 M0.36 14.88 C4.95 8.5, 7.09 6.78, 12.82 0.54 M0.36 14.88 C4.44 11.72, 6 7.71, 12.82 0.54 M0.75 20.53 C5.85 14.83, 12.18 5.58, 18.46 0.15 M0.75 20.53 C5.27 14.68, 11.06 6.94, 18.46 0.15 M0.49 26.93 C9.34 20.24, 14.27 9.5, 24.11 -0.24 M0.49 26.93 C8.57 16.08, 18.74 5.33, 24.11 -0.24 M0.23 33.32 C6.56 23.14, 14.26 17.81, 29.09 0.12 M0.23 33.32 C9.02 24, 17.31 13.91, 29.09 0.12 M0.62 38.97 C8.8 30.33, 12.94 21.94, 34.74 -0.28 M0.62 38.97 C12.19 26.14, 21.36 14.08, 34.74 -0.28 M0.36 45.36 C8.65 34.2, 18.54 24.59, 39.72 0.08 M0.36 45.36 C12.57 31.87, 25.34 15.46, 39.72 0.08 M0.76 51.01 C15.78 31.09, 31.86 13.1, 44.71 0.44 M0.76 51.01 C12.6 38.37, 24.16 25.23, 44.71 0.44 M1.15 56.65 C13.66 40.31, 29.46 25.99, 50.35 0.05 M1.15 56.65 C16.36 39.53, 31.48 22.1, 50.35 0.05 M2.2 61.54 C16.83 41.6, 34.31 27, 55.34 0.41 M2.2 61.54 C15.39 47.9, 27.61 31.32, 55.34 0.41 M5.22 64.16 C21.01 43.02, 39.96 25.56, 60.98 0.01 M5.22 64.16 C20.67 45.82, 34.85 28.2, 60.98 0.01 M8.24 66.79 C24.59 49.04, 39.51 34.1, 65.97 0.37 M8.24 66.79 C24.24 48.83, 38.37 29.93, 65.97 0.37 M12.57 67.9 C34.48 44.64, 56.76 17.3, 71.61 -0.02 M12.57 67.9 C27.6 49.01, 44.01 31.75, 71.61 -0.02 M17.56 68.26 C28.73 53.35, 42.37 40.28, 76.6 0.34 M17.56 68.26 C35.98 45.54, 55.67 25.68, 76.6 0.34 M22.54 68.62 C38.35 50.4, 50.82 36.85, 82.24 -0.06 M22.54 68.62 C41.36 46.53, 60.87 24.74, 82.24 -0.06 M28.19 68.23 C50.97 42.05, 76.23 13.9, 87.23 0.3 M28.19 68.23 C48.5 46.63, 66.46 22.94, 87.23 0.3 M33.17 68.59 C58.59 42.29, 82.17 14.75, 92.87 -0.09 M33.17 68.59 C46.13 54.48, 58.32 40.79, 92.87 -0.09 M38.16 68.95 C51.2 52.47, 68.35 33.26, 97.86 0.27 M38.16 68.95 C53.83 52.52, 68.88 32.97, 97.86 0.27 M43.8 68.55 C58.83 51.77, 71.67 33.53, 103.5 -0.13 M43.8 68.55 C62.86 46.7, 82.32 23.78, 103.5 -0.13 M48.79 68.91 C65.54 50.01, 79.43 33.65, 108.49 0.23 M48.79 68.91 C62.74 53.29, 75.64 39.4, 108.49 0.23 M54.43 68.52 C72.38 47.87, 88.49 28.73, 114.13 -0.16 M54.43 68.52 C66.48 53.44, 81.78 36.43, 114.13 -0.16 M59.42 68.88 C76.21 49.69, 88.55 33.73, 119.12 0.2 M59.42 68.88 C78.73 47.32, 97.68 24.68, 119.12 0.2 M65.06 68.48 C76.98 56.19, 89.53 40.97, 124.76 -0.19 M65.06 68.48 C80.3 49.62, 96.62 32.45, 124.76 -0.19 M70.05 68.84 C92.51 43.08, 116.62 15.1, 129.75 0.17 M70.05 68.84 C85.07 52.37, 98.54 35.7, 129.75 0.17 M75.69 68.45 C94.26 48.24, 114.55 23.43, 135.39 -0.23 M75.69 68.45 C96.25 44.44, 116.38 20.62, 135.39 -0.23 M80.68 68.81 C101.5 43.25, 121.58 21.94, 140.38 0.13 M80.68 68.81 C95.49 52.21, 108.9 35.38, 140.38 0.13 M86.32 68.41 C107.81 46.39, 124.59 22.93, 146.02 -0.26 M86.32 68.41 C108.39 40.7, 133.63 14.6, 146.02 -0.26 M91.31 68.77 C107.59 50.1, 125.7 29.61, 151.01 0.1 M91.31 68.77 C113.68 44.36, 136.32 17.44, 151.01 0.1 M96.95 68.38 C111.62 54.13, 121.96 37.67, 156 0.46 M96.95 68.38 C115.08 49.07, 131.9 29.41, 156 0.46 M101.94 68.74 C123.46 47.18, 142.66 22.71, 161.64 0.06 M101.94 68.74 C116.79 49.83, 132.86 33.86, 161.64 0.06 M107.58 68.35 C125.7 47.47, 146.39 28.1, 166.63 0.42 M107.58 68.35 C125.03 48.85, 142.43 29.89, 166.63 0.42 M112.57 68.71 C130.04 47.82, 149.59 26.93, 172.27 0.03 M112.57 68.71 C131.64 46.69, 148.85 25.99, 172.27 0.03 M118.21 68.31 C131.45 52.77, 146.17 35.98, 177.26 0.39 M118.21 68.31 C133.26 51.12, 147.21 34.03, 177.26 0.39 M123.2 68.67 C144.37 45.51, 166.78 22.25, 182.9 -0.01 M123.2 68.67 C141.82 47.42, 160.51 26.13, 182.9 -0.01 M128.84 68.28 C149.93 45.97, 167.6 23.87, 187.23 1.11 M128.84 68.28 C140.61 54.77, 152.87 39.15, 187.23 1.11 M133.83 68.64 C153.85 48.23, 171.46 27.15, 191.56 2.22 M133.83 68.64 C147.04 52.16, 162.44 36.32, 191.56 2.22 M139.47 68.24 C154.59 48.92, 172.91 30.87, 194.58 4.85 M139.47 68.24 C159.46 44.19, 181.38 20.86, 194.58 4.85 M144.46 68.6 C153.91 56.61, 165.13 43.26, 197.6 7.47 M144.46 68.6 C158.43 52.65, 171.81 37.45, 197.6 7.47 M150.1 68.21 C167.02 50.82, 183.42 31.8, 199.31 11.6 M150.1 68.21 C167.7 50.74, 183.48 31.67, 199.31 11.6 M155.09 68.57 C166.4 51.39, 179.62 38.07, 199.05 18 M155.09 68.57 C167.17 54.12, 180.22 41.54, 199.05 18 M160.08 68.93 C172 56.28, 183.4 43.54, 198.79 24.4 M160.08 68.93 C171.04 56.57, 179.54 45.98, 198.79 24.4 M165.72 68.53 C173.77 59.97, 182.11 51.93, 199.18 30.04 M165.72 68.53 C172.55 59.83, 179.68 51.97, 199.18 30.04 M170.71 68.89 C175.95 62.96, 183.51 53.97, 198.92 36.44 M170.71 68.89 C178.69 59.9, 187.96 48.28, 198.92 36.44 M176.35 68.5 C182.25 60.63, 190.67 52.28, 198.66 42.84 M176.35 68.5 C183.84 57.63, 193.89 49.3, 198.66 42.84 M181.34 68.86 C187.76 61.44, 192.26 56.64, 198.4 49.24 M181.34 68.86 C184.52 64.56, 190 60.8, 198.4 49.24 M187.64 67.71 C190.01 66.34, 192.88 63.1, 198.79 54.88 M187.64 67.71 C191.1 64.26, 193.12 60.7, 198.79 54.88" stroke="#a5d8ff" stroke-width="0.5" fill="none"/><path d="M17.11 0 C80.94 1.08, 142.68 -0.34, 182.39 0 M17.11 0 C67.15 -1.16, 117.21 -0.23, 182.39 0 M182.39 0 C193.62 -1.5, 198.77 4.49, 199.49 17.11 M182.39 0 C191.57 -0.35, 200.27 5.25, 199.49 17.11 M199.49 17.11 C200.49 27.85, 199.48 39.21, 199.49 51.32 M199.49 17.11 C199.22 25.53, 199.71 35.8, 199.49 51.32 M199.49 51.32 C200.39 64.69, 191.88 68.73, 182.39 68.43 M199.49 51.32 C200.34 61.49, 192.44 70.26, 182.39 68.43 M182.39 68.43 C132.44 66.89, 81.25 68.1, 17.11 68.43 M182.39 68.43 C118.16 69.05, 53.56 69.81, 17.11 68.43 M17.11 68.43 C4.41 67.42, 0.34 61.18, 0 51.32 M17.11 68.43 C5.38 67.64, -1.07 62.7, 0 51.32 M0 51.32 C-1.44 44.59, -0.22 36.82, 0 17.11 M0 51.32 C0.54 39, -0.8 25.17, 0 17.11 M0 17.11 C-0.28 7.6, 5.24 -1.64, 17.11 0 M0 17.11 C2.09 6.34, 5.42 -1.42, 17.11 0" stroke="#1e1e1e" stroke-width="1" fill="none"/></g><g transform="translate(679.286328355435 125.76819201777323) rotate(0 43.40009307861328 10)"><switch style="white-space: pre;"><text x="43.40009307861328" y="0" font-family="Virgil, Segoe UI Emoji" font-size="16px" fill="#1e1e1e" text-anchor="middle" style="white-space: pre;" direction="ltr" dominant-baseline="text-before-edge" id="trsvg15-uk" systemLanguage="uk"><tspan id="trsvg6-uk">&#x406;&#x43D;&#x441;&#x442;&#x440;&#x443;&#x43A;&#x446;&#x456;&#x457;</tspan></text><text x="43.40009307861328" y="0" font-family="Virgil, Segoe UI Emoji" font-size="16px" fill="#1e1e1e" text-anchor="middle" style="white-space: pre;" direction="ltr" dominant-baseline="text-before-edge" id="trsvg15"><tspan id="trsvg6">Instruction</tspan></text></switch></g><g stroke-linecap="round" transform="translate(622.9392346613315 211.9037258829386) rotate(0 99.74718677271665 34.21280319257431)"><path d="M4.55 3.96 C4.55 3.96, 4.55 3.96, 4.55 3.96 M4.55 3.96 C4.55 3.96, 4.55 3.96, 4.55 3.96 M0.36 14.88 C1.81 10.53, 4.44 7.45, 12.82 0.54 M0.36 14.88 C4.05 10.3, 9.41 5.09, 12.82 0.54 M0.75 20.53 C6.84 17.4, 8.47 10.08, 18.46 0.15 M0.75 20.53 C6.13 16.03, 9.58 9.33, 18.46 0.15 M0.49 26.93 C4.94 19.94, 10.77 14.37, 24.11 -0.24 M0.49 26.93 C6.57 18.43, 15.38 10.31, 24.11 -0.24 M0.23 33.32 C6.66 25.52, 10.54 18.88, 29.09 0.12 M0.23 33.32 C5.67 27.16, 12.03 20.84, 29.09 0.12 M0.62 38.97 C9.14 27.95, 17.17 20.36, 34.74 -0.28 M0.62 38.97 C10.56 27.8, 20.37 16.7, 34.74 -0.28 M0.36 45.36 C11.47 32.25, 19.66 21.98, 39.72 0.08 M0.36 45.36 C14.83 28.7, 30.94 11.12, 39.72 0.08 M0.76 51.01 C12.43 38.66, 19.08 29.54, 44.71 0.44 M0.76 51.01 C15.6 35.38, 28.14 18.48, 44.71 0.44 M1.15 56.65 C12.54 44.56, 24.26 30.99, 50.35 0.05 M1.15 56.65 C19.32 36.87, 36.85 15.06, 50.35 0.05 M2.2 61.54 C14.73 47.67, 28.32 34.08, 55.34 0.41 M2.2 61.54 C16.8 44.2, 30.47 28.24, 55.34 0.41 M5.22 64.16 C26.76 39.58, 46.18 17.46, 60.98 0.01 M5.22 64.16 C20.82 47.04, 33.71 31.29, 60.98 0.01 M8.24 66.79 C31.1 44.4, 48.89 18.74, 65.97 0.37 M8.24 66.79 C29.53 42.69, 49.8 19.33, 65.97 0.37 M12.57 67.9 C29.49 47.92, 46.53 30.37, 71.61 -0.02 M12.57 67.9 C30.96 47.7, 49.91 25.16, 71.61 -0.02 M17.56 68.26 C33.78 51.6, 50.07 33.15, 76.6 0.34 M17.56 68.26 C37.67 46.78, 56.9 24.5, 76.6 0.34 M22.54 68.62 C47 41.19, 68.6 17.89, 82.24 -0.06 M22.54 68.62 C36.04 52.58, 51.84 35.97, 82.24 -0.06 M28.19 68.23 C41.46 54.81, 53.12 39.13, 87.23 0.3 M28.19 68.23 C39.92 53.78, 52.9 39.66, 87.23 0.3 M33.17 68.59 C48.46 54.36, 59.89 37.26, 92.87 -0.09 M33.17 68.59 C51.7 48.56, 69.36 27.47, 92.87 -0.09 M38.16 68.95 C63.31 42.13, 85.49 13.4, 97.86 0.27 M38.16 68.95 C61.74 41.2, 85.06 16.62, 97.86 0.27 M43.8 68.55 C57.25 55.41, 68.05 37.89, 103.5 -0.13 M43.8 68.55 C59.87 49.15, 77.68 29.38, 103.5 -0.13 M48.79 68.91 C62.48 52.42, 78.89 36.63, 108.49 0.23 M48.79 68.91 C69.03 45.77, 87.81 23.74, 108.49 0.23 M54.43 68.52 C68.4 48.67, 87.18 30.53, 114.13 -0.16 M54.43 68.52 C72.65 49.95, 89 29.83, 114.13 -0.16 M59.42 68.88 C76.49 46.6, 98.3 25.99, 119.12 0.2 M59.42 68.88 C75.67 50.79, 90.78 32.19, 119.12 0.2 M65.06 68.48 C85.53 45.9, 102.86 22.63, 124.76 -0.19 M65.06 68.48 C83.12 47.79, 101.64 25.76, 124.76 -0.19 M70.05 68.84 C81.6 56.66, 94.49 39.86, 129.75 0.17 M70.05 68.84 C87.13 47.03, 104.24 28.33, 129.75 0.17 M75.69 68.45 C93.92 46.69, 113.22 26.75, 135.39 -0.23 M75.69 68.45 C92.83 48.38, 111.55 28.58, 135.39 -0.23 M80.68 68.81 C96.91 53.49, 111.71 33.85, 140.38 0.13 M80.68 68.81 C98.05 50.63, 114.8 31.23, 140.38 0.13 M86.32 68.41 C104.62 51.09, 120.95 31.51, 146.02 -0.26 M86.32 68.41 C105.09 47.31, 121.52 27.43, 146.02 -0.26 M91.31 68.77 C112.71 42.48, 136.36 18.82, 151.01 0.1 M91.31 68.77 C113.28 43.16, 136.33 17.49, 151.01 0.1 M96.95 68.38 C115.65 46.05, 134.41 25.9, 156 0.46 M96.95 68.38 C114.62 49.29, 130.72 28.34, 156 0.46 M101.94 68.74 C121.27 46.99, 139.83 26.65, 161.64 0.06 M101.94 68.74 C117.63 50.46, 133.93 31.03, 161.64 0.06 M107.58 68.35 C124.82 49.73, 141.34 32.43, 166.63 0.42 M107.58 68.35 C127.82 43.91, 149.63 19.51, 166.63 0.42 M112.57 68.71 C131 46.96, 152.31 21.86, 172.27 0.03 M112.57 68.71 C133.4 44.32, 155.07 20.36, 172.27 0.03 M118.21 68.31 C128.42 56.31, 142.11 41.91, 177.26 0.39 M118.21 68.31 C136.47 46.23, 154.86 26.34, 177.26 0.39 M123.2 68.67 C140.39 44.87, 161.05 24.29, 182.9 -0.01 M123.2 68.67 C142.76 44.98, 162.48 23.22, 182.9 -0.01 M128.84 68.28 C146.96 47.4, 164.02 28.29, 187.23 1.11 M128.84 68.28 C145.74 50.13, 161.3 31.4, 187.23 1.11 M133.83 68.64 C152.87 48, 172.47 26.86, 191.56 2.22 M133.83 68.64 C148.46 51.86, 165.92 33.26, 191.56 2.22 M139.47 68.24 C159.88 44.34, 175.99 22.38, 194.58 4.85 M139.47 68.24 C156.86 49.15, 172.61 31, 194.58 4.85 M144.46 68.6 C167.08 45.19, 187.03 21.32, 197.6 7.47 M144.46 68.6 C162.22 50.61, 177.3 30.1, 197.6 7.47 M150.1 68.21 C169.12 49.07, 185.03 30.23, 199.31 11.6 M150.1 68.21 C168.33 47.68, 185.12 27.54, 199.31 11.6 M155.09 68.57 C171.27 50.01, 186.95 33.86, 199.05 18 M155.09 68.57 C168.88 51.31, 184.69 35.3, 199.05 18 M160.08 68.93 C169.92 56.65, 179.5 46.93, 198.79 24.4 M160.08 68.93 C172.03 53.88, 182.89 41.48, 198.79 24.4 M165.72 68.53 C177.47 56.13, 188 41.68, 199.18 30.04 M165.72 68.53 C176.81 55.84, 187.07 45.46, 199.18 30.04 M170.71 68.89 C181.01 55.94, 194.75 43.6, 198.92 36.44 M170.71 68.89 C181.89 57.3, 192.17 44.02, 198.92 36.44 M176.35 68.5 C179.14 61.17, 184.97 59.12, 198.66 42.84 M176.35 68.5 C183.87 58.66, 193.29 49, 198.66 42.84 M181.34 68.86 C187.88 64.02, 190.29 58.73, 198.4 49.24 M181.34 68.86 C186.52 62.9, 191.28 57.22, 198.4 49.24 M187.64 67.71 C192.15 62.14, 195.23 60.89, 198.79 54.88 M187.64 67.71 C190.85 63.46, 195.03 58.83, 198.79 54.88" stroke="#846358" stroke-width="0.5" fill="none"/><path d="M17.11 0 C57.87 -2.34, 97.1 -1.41, 182.39 0 M17.11 0 C65.05 -0.62, 111.39 -0.09, 182.39 0 M182.39 0 C194.22 1.87, 201.43 4.41, 199.49 17.11 M182.39 0 C192.64 0.39, 197.72 5.38, 199.49 17.11 M199.49 17.11 C197.89 27.7, 200.43 34.11, 199.49 51.32 M199.49 17.11 C200.32 29.56, 199.4 41.95, 199.49 51.32 M199.49 51.32 C201.02 61.37, 193.83 68.15, 182.39 68.43 M199.49 51.32 C201.67 62.19, 191.9 70.52, 182.39 68.43 M182.39 68.43 C129.02 69.08, 73.38 67.03, 17.11 68.43 M182.39 68.43 C122.3 69.83, 60.5 68.93, 17.11 68.43 M17.11 68.43 C5.76 69.21, 1.33 62.46, 0 51.32 M17.11 68.43 C5.97 67.62, 1.9 63.52, 0 51.32 M0 51.32 C-0.6 44.19, -1.43 39.05, 0 17.11 M0 51.32 C0.69 39.07, 0.34 26.95, 0 17.11 M0 17.11 C1.2 5.09, 4.55 0.15, 17.11 0 M0 17.11 C0.71 7.52, 3.71 1.29, 17.11 0" stroke="#1e1e1e" stroke-width="1" fill="none"/></g><g transform="translate(691.4543581405912 236.11652907551297) rotate(0 31.23206329345703 10)"><switch style="white-space: pre;"><text x="31.23206329345703" y="0" font-family="Virgil, Segoe UI Emoji" font-size="16px" fill="#1e1e1e" text-anchor="middle" style="white-space: pre;" direction="ltr" dominant-baseline="text-before-edge" id="trsvg16-uk" systemLanguage="uk"><tspan id="trsvg7-uk">&#x41A;&#x43E;&#x43D;&#x442;&#x435;&#x43A;&#x441;&#x442;</tspan></text><text x="31.23206329345703" y="0" font-family="Virgil, Segoe UI Emoji" font-size="16px" fill="#1e1e1e" text-anchor="middle" style="white-space: pre;" direction="ltr" dominant-baseline="text-before-edge" id="trsvg16"><tspan id="trsvg7">Context</tspan></text></switch></g><g stroke-linecap="round" transform="translate(916.8802198369699 10) rotate(0 99.74718677271665 134.92373090029304)"><path d="M7.86 8.16 C7.86 8.16, 7.86 8.16, 7.86 8.16 M7.86 8.16 C7.86 8.16, 7.86 8.16, 7.86 8.16 M3.66 19.09 C7.8 16.55, 9.18 10.27, 18.1 2.48 M3.66 19.09 C9.8 12.29, 15.03 6, 18.1 2.48 M2.75 26.24 C6.31 20.14, 10.54 17.01, 24.4 1.33 M2.75 26.24 C8.54 18.54, 14.94 11.28, 24.4 1.33 M2.48 32.64 C9.1 23.39, 16.03 16.88, 30.7 0.18 M2.48 32.64 C10.87 22.97, 19.71 12.66, 30.7 0.18 M2.88 38.28 C8.05 29.97, 14.77 23.31, 34.37 2.05 M2.88 38.28 C15.63 23.71, 29.06 9.11, 34.37 2.05 M2.62 44.68 C10.18 34.94, 20.84 25.93, 39.36 2.41 M2.62 44.68 C11.98 34.26, 21.54 23.91, 39.36 2.41 M2.36 51.07 C12.15 40.11, 24.28 27.81, 45 2.02 M2.36 51.07 C17.12 36.04, 30.57 19.88, 45 2.02 M2.75 56.72 C20.25 35.65, 39.63 12.55, 49.99 2.38 M2.75 56.72 C14.31 42.22, 27.63 27.81, 49.99 2.38 M2.49 63.11 C15 47.1, 29.27 32.99, 55.63 1.98 M2.49 63.11 C13.03 49.12, 25.92 37.07, 55.63 1.98 M2.23 69.51 C15.85 53.26, 29.78 38.21, 60.62 2.34 M2.23 69.51 C20.04 50.58, 36.54 30.16, 60.62 2.34 M2.62 75.16 C25.68 48.4, 48.67 23.8, 66.26 1.95 M2.62 75.16 C29.58 45.45, 54.48 17.53, 66.26 1.95 M2.36 81.55 C23.99 54.4, 50.44 27.66, 71.25 2.31 M2.36 81.55 C23.55 54.97, 47.24 28.78, 71.25 2.31 M2.76 87.2 C27.64 57.02, 52.62 27.91, 76.89 1.91 M2.76 87.2 C31.1 56.03, 60.48 22.94, 76.89 1.91 M2.49 93.59 C26.53 68.97, 48.49 40.97, 81.88 2.27 M2.49 93.59 C25.61 66.56, 50.71 39.66, 81.88 2.27 M2.23 99.99 C21.55 75.86, 44.07 53.06, 87.52 1.88 M2.23 99.99 C23.96 74.53, 46.93 48.62, 87.52 1.88 M2.63 105.64 C30.12 73.92, 60.37 37.7, 92.51 2.24 M2.63 105.64 C33.6 68.24, 66.57 32.49, 92.51 2.24 M2.37 112.03 C24.13 89.11, 42.47 65.87, 97.49 2.6 M2.37 112.03 C29.39 79.65, 58.01 47.55, 97.49 2.6 M2.1 118.43 C40.4 72.6, 80.14 27.85, 103.14 2.21 M2.1 118.43 C23.69 94.03, 42.76 69.98, 103.14 2.21 M2.5 124.07 C36.95 84.07, 75.32 45.03, 108.12 2.57 M2.5 124.07 C38.94 82.79, 74.37 40.01, 108.12 2.57 M2.24 130.47 C45.87 83.29, 89.76 32.91, 113.77 2.17 M2.24 130.47 C40.14 86.62, 77.49 44.14, 113.77 2.17 M2.63 136.11 C25.12 107.34, 48.49 81.67, 118.76 2.53 M2.63 136.11 C32.01 104.22, 59.46 73.62, 118.76 2.53 M2.37 142.51 C46.32 96.91, 84.98 46.95, 124.4 2.14 M2.37 142.51 C27.9 111.66, 54.81 80.35, 124.4 2.14 M2.11 148.91 C46.79 98.7, 88.84 49.15, 129.39 2.5 M2.11 148.91 C50.66 91.6, 102.42 34.27, 129.39 2.5 M2.5 154.55 C49.9 99.07, 97.72 48.07, 135.03 2.1 M2.5 154.55 C43.55 105.98, 86.01 59.07, 135.03 2.1 M2.24 160.95 C54.39 99.41, 109.54 37.14, 140.02 2.46 M2.24 160.95 C31.03 126.29, 59.35 93.22, 140.02 2.46 M2.64 166.59 C42.97 117.66, 83.65 70.26, 145 2.82 M2.64 166.59 C38.27 123.01, 75.15 80.82, 145 2.82 M2.38 172.99 C46.05 123.04, 90.56 73.83, 150.65 2.43 M2.38 172.99 C40.74 129.7, 79.55 85.23, 150.65 2.43 M2.11 179.39 C49.36 124.84, 97.88 68.45, 155.63 2.79 M2.11 179.39 C44.44 131.63, 85.64 84.9, 155.63 2.79 M2.51 185.03 C54.86 123.36, 106.95 61.12, 161.28 2.39 M2.51 185.03 C49.93 129.81, 96.1 76.71, 161.28 2.39 M2.25 191.43 C52.8 133.91, 104.2 73.97, 166.26 2.75 M2.25 191.43 C58.48 128.11, 113.69 64.54, 166.26 2.75 M1.99 197.83 C53.22 137.47, 106.15 74.99, 171.91 2.36 M1.99 197.83 C46.91 145.14, 91.42 92.44, 171.91 2.36 M2.38 203.47 C51.37 148.66, 97.72 92.87, 176.89 2.72 M2.38 203.47 C45.3 151.49, 91.44 99.08, 176.89 2.72 M2.12 209.87 C60.33 143.3, 119.92 77.01, 181.22 3.83 M2.12 209.87 C53.87 149.18, 105.74 90.24, 181.22 3.83 M2.51 215.51 C61.46 145.6, 119.56 79.24, 185.55 4.95 M2.51 215.51 C71.96 135.07, 142.41 53.34, 185.55 4.95 M2.25 221.91 C42.47 175.25, 83.29 130.36, 189.23 6.82 M2.25 221.91 C51.21 163.55, 101.98 105.74, 189.23 6.82 M1.99 228.31 C59.86 158.18, 121.84 91.33, 192.25 9.44 M1.99 228.31 C51.23 172.1, 100.71 116.61, 192.25 9.44 M2.39 233.95 C61.85 163.38, 125.4 90.89, 195.27 12.07 M2.39 233.95 C57.15 170.97, 112.71 107.11, 195.27 12.07 M2.12 240.35 C79.38 150.95, 155.34 61.77, 197.63 15.45 M2.12 240.35 C80.93 151.71, 158.8 61.49, 197.63 15.45 M3.17 245.24 C66.86 174.14, 128.54 99.86, 199.34 19.58 M3.17 245.24 C41.79 198.33, 81.22 153.82, 199.34 19.58 M2.26 252.39 C48.86 197.69, 98.09 141.76, 200.39 24.47 M2.26 252.39 C63.62 178.25, 127.21 105.02, 200.39 24.47 M3.96 256.52 C80.88 166.08, 159.68 77.8, 200.78 30.11 M3.96 256.52 C57.31 197.3, 108.63 135.86, 200.78 30.11 M6.98 259.15 C55.05 201.59, 102.82 144.31, 202.49 34.24 M6.98 259.15 C67.15 190.71, 127.24 121.9, 202.49 34.24 M9.35 262.53 C56.58 205.5, 106.36 149.49, 202.23 40.64 M9.35 262.53 C69.4 194.13, 129.85 124.61, 202.23 40.64 M12.36 265.15 C77.01 189.31, 141.37 113.87, 202.62 46.28 M12.36 265.15 C54.55 216.22, 96.01 167.77, 202.62 46.28 M15.38 267.78 C74.5 199.59, 134.69 132.08, 202.36 52.68 M15.38 267.78 C78.53 195.94, 140.99 122.77, 202.36 52.68 M19.71 268.89 C82.45 196.61, 146.81 122.06, 202.1 59.08 M19.71 268.89 C79.3 199.53, 138.73 133.43, 202.1 59.08 M24.05 270 C83.59 202.72, 142.29 131.91, 202.49 64.72 M24.05 270 C83.55 201.9, 142.75 134.33, 202.49 64.72 M29.03 270.36 C70.73 224.97, 110.1 178.83, 202.23 71.12 M29.03 270.36 C67.33 223.97, 108.69 177.95, 202.23 71.12 M33.36 271.48 C97.86 198.77, 157.44 128.35, 202.63 76.76 M33.36 271.48 C80.96 216.79, 127.38 163.15, 202.63 76.76 M39.01 271.08 C78.65 225.51, 116.97 181.45, 202.36 83.16 M39.01 271.08 C97.97 203.81, 157.97 135.22, 202.36 83.16 M43.99 271.45 C104.91 201.95, 169.37 130.99, 202.1 89.56 M43.99 271.45 C93.62 214.34, 142.54 157.76, 202.1 89.56 M49.64 271.05 C108.72 203.01, 168.19 136.57, 202.5 95.2 M49.64 271.05 C97.87 216.26, 145.87 162.32, 202.5 95.2 M54.62 271.41 C99.89 219.83, 145.31 166.51, 202.24 101.6 M54.62 271.41 C110.22 208.19, 165.76 143.61, 202.24 101.6 M60.27 271.02 C111.17 212.84, 162.56 153.51, 202.63 107.24 M60.27 271.02 C93.77 230.32, 128.29 191.56, 202.63 107.24 M65.25 271.38 C110.67 219.32, 154.88 164.04, 202.37 113.64 M65.25 271.38 C117.07 208.9, 171.58 147.1, 202.37 113.64 M70.9 270.98 C123.16 212.23, 176.03 151.4, 202.11 120.04 M70.9 270.98 C113.63 220.96, 155.65 172.73, 202.11 120.04 M75.88 271.34 C102.89 239.72, 129.49 209.13, 202.5 125.68 M75.88 271.34 C106.18 236.5, 136.32 200.78, 202.5 125.68 M81.53 270.95 C110.46 235.13, 143.05 199.8, 202.24 132.08 M81.53 270.95 C116.66 231.59, 151.36 192.79, 202.24 132.08 M86.51 271.31 C129.2 218.5, 174.77 170.03, 202.64 137.72 M86.51 271.31 C110.11 244.22, 132.39 216.48, 202.64 137.72 M92.16 270.91 C136.46 219.87, 176.56 173.87, 202.37 144.12 M92.16 270.91 C118.89 239.96, 146.24 208.78, 202.37 144.12 M97.14 271.27 C120.44 241.39, 148.27 211.61, 202.11 150.52 M97.14 271.27 C135.13 229.77, 171.63 186.62, 202.11 150.52 M102.79 270.88 C138.94 227.77, 176.92 186.92, 202.51 156.16 M102.79 270.88 C131.48 236.52, 161.53 202.11, 202.51 156.16 M107.77 271.24 C132.25 239.99, 157.66 211.83, 202.25 162.56 M107.77 271.24 C136.35 238.76, 165 205.38, 202.25 162.56 M112.76 271.6 C141.62 240.28, 170.07 203.13, 201.98 168.96 M112.76 271.6 C141.56 238.88, 170.75 204.58, 201.98 168.96 M118.4 271.2 C142.29 241.53, 165.84 214.91, 202.38 174.6 M118.4 271.2 C142.98 243.57, 167.11 214.59, 202.38 174.6 M123.39 271.56 C143.15 246.44, 166.2 222.56, 202.12 181 M123.39 271.56 C154.86 234.65, 185.35 199.73, 202.12 181 M129.03 271.17 C144.61 252.95, 160.98 233.34, 202.51 186.64 M129.03 271.17 C152.23 243.88, 175.37 216.36, 202.51 186.64 M134.02 271.53 C156.54 246.14, 181.08 219.84, 202.25 193.04 M134.02 271.53 C157.98 245.13, 182.11 216.97, 202.25 193.04 M139.66 271.13 C159.67 248.34, 180.42 224.61, 201.99 199.44 M139.66 271.13 C163.17 244.83, 187.52 218.05, 201.99 199.44 M144.65 271.49 C166.55 247.86, 188.07 223.67, 202.38 205.08 M144.65 271.49 C155.35 257.17, 168.77 243.58, 202.38 205.08 M150.29 271.1 C169.05 249.33, 183.48 230.13, 202.12 211.48 M150.29 271.1 C160.54 258.59, 171.07 247.42, 202.12 211.48 M155.28 271.46 C173.13 252.24, 191.29 229.58, 202.52 217.12 M155.28 271.46 C173.73 250.58, 190.34 230.3, 202.52 217.12 M160.92 271.07 C177.34 254.26, 191.05 234.14, 202.26 223.52 M160.92 271.07 C177.16 253.37, 191.09 234.53, 202.26 223.52 M165.91 271.43 C175.95 260.86, 184.35 252.64, 201.99 229.92 M165.91 271.43 C174.33 261.87, 183.73 251.31, 201.99 229.92 M170.24 272.54 C177.85 262.36, 184.17 256.15, 199.76 238.58 M170.24 272.54 C181.42 258.63, 193.62 245.58, 199.76 238.58 M176.54 271.39 C186.01 261.56, 193.32 250.47, 198.85 245.73 M176.54 271.39 C185.08 262.35, 192.49 253.28, 198.85 245.73 M186.78 265.71 C189.62 262.38, 191.11 260.99, 195.96 255.15 M186.78 265.71 C190.42 262.02, 193.16 257.3, 195.96 255.15 M12.86 265.66 C12.86 265.66, 12.86 265.66, 12.86 265.66 M12.86 265.66 C12.86 265.66, 12.86 265.66, 12.86 265.66 M21.53 267.89 C15.26 263.87, 11.35 257.02, 2.66 251.49 M21.53 267.89 C15.98 263.48, 11.43 259.6, 2.66 251.49 M29.43 269.47 C17.73 261.21, 7.73 254.17, 1.51 245.19 M29.43 269.47 C18.8 261.48, 9.4 251.04, 1.51 245.19 M35.08 269.07 C26.85 262.04, 19.92 252.69, 0.36 238.89 M35.08 269.07 C24.37 259.78, 12.85 251.09, 0.36 238.89 M41.47 269.33 C29.83 258.83, 13.38 246.26, -0.03 233.25 M41.47 269.33 C25.96 256.65, 12.77 243.84, -0.03 233.25 M47.87 269.6 C36.96 259.92, 28.91 254.46, 0.33 228.26 M47.87 269.6 C34.16 257.65, 20.35 246.6, 0.33 228.26 M53.52 269.2 C36.04 254.65, 20.12 239.32, 0.69 223.28 M53.52 269.2 C33.6 253.17, 15.53 236.06, 0.69 223.28 M59.91 269.46 C48.52 257.35, 34.28 248.05, 0.29 217.63 M59.91 269.46 C46.88 257.02, 33.78 247.32, 0.29 217.63 M65.56 269.07 C46.75 255.69, 29.19 239.52, 0.65 212.65 M65.56 269.07 C48.97 254.59, 31.51 239.83, 0.65 212.65 M71.95 269.33 C51.66 251.99, 31.73 233.41, 0.26 207 M71.95 269.33 C49.03 249.2, 26.71 230.05, 0.26 207 M78.35 269.59 C50.63 246.65, 20.5 220.61, 0.62 202.02 M78.35 269.59 C58.55 252.47, 38.55 234.3, 0.62 202.02 M83.99 269.2 C66.99 255.47, 49.4 240.08, 0.22 196.37 M83.99 269.2 C61.05 249.33, 36.43 229.05, 0.22 196.37 M90.39 269.46 C60.49 245.47, 28.66 216.18, 0.58 191.39 M90.39 269.46 C66.57 249.63, 44.45 230.01, 0.58 191.39 M96.79 269.72 C63.79 240.06, 26.11 210.27, 0.19 185.74 M96.79 269.72 C68.13 243.11, 37.57 218.34, 0.19 185.74 M102.43 269.32 C73.03 244.78, 45.66 219.4, 0.55 180.76 M102.43 269.32 C73.85 245.23, 45.35 220.63, 0.55 180.76 M108.83 269.59 C77.55 241.28, 46.07 215.29, 0.15 175.11 M108.83 269.59 C70.25 238, 34 205.49, 0.15 175.11 M114.47 269.19 C78.76 241.4, 46.07 208.91, 0.51 170.13 M114.47 269.19 C83.2 241.19, 51.53 213.71, 0.51 170.13 M120.87 269.45 C80.47 234.99, 36.91 199.14, 0.12 164.48 M120.87 269.45 C91 243.88, 61.49 219.17, 0.12 164.48 M127.27 269.71 C94.01 237.6, 57.02 208.52, 0.48 159.5 M127.27 269.71 C87.27 233.21, 48.5 199.57, 0.48 159.5 M132.91 269.32 C101.74 244.21, 73.54 218.56, 0.84 154.51 M132.91 269.32 C80.24 224.39, 28.62 178.39, 0.84 154.51 M139.31 269.58 C102.15 240.4, 66.25 206.73, 0.44 148.87 M139.31 269.58 C86.7 223.59, 34.47 176.78, 0.44 148.87 M144.95 269.19 C110.34 239.69, 75.57 208.21, 0.8 143.88 M144.95 269.19 C106.48 235.29, 67.25 200.71, 0.8 143.88 M151.35 269.45 C105.33 231.25, 63.22 193.74, 0.41 138.24 M151.35 269.45 C98.02 221.85, 42.11 175.69, 0.41 138.24 M157.75 269.71 C113.69 231.34, 72.36 194.65, 0.77 133.25 M157.75 269.71 C109.59 228.81, 63.63 188.74, 0.77 133.25 M163.39 269.31 C131.03 239.88, 94.38 210.23, 0.37 127.61 M163.39 269.31 C114.87 228.74, 66.3 186.15, 0.37 127.61 M169.04 268.92 C104.43 214.79, 39.4 157.76, 0.73 122.62 M169.04 268.92 C134.52 238.17, 99.39 207.73, 0.73 122.62 M174.68 268.53 C106.14 207.08, 33.98 146.37, 0.34 116.98 M174.68 268.53 C120.32 220.02, 64.45 172.72, 0.34 116.98 M179.57 267.47 C140.91 231.88, 100.36 200.41, 0.7 111.99 M179.57 267.47 C138.02 229.09, 95.07 193.26, 0.7 111.99 M184.46 266.42 C138.73 227.91, 93.58 187.61, 0.31 106.35 M184.46 266.42 C131.8 222.69, 81.07 178.48, 0.31 106.35 M187.83 264.06 C115.02 200.81, 45.32 136.83, 0.67 101.36 M187.83 264.06 C120.78 204.48, 53.3 145.5, 0.67 101.36 M191.21 261.7 C131.6 212.3, 72.39 160.16, 0.27 95.72 M191.21 261.7 C121.46 200.78, 51.39 140.47, 0.27 95.72 M193.84 258.68 C134.33 205.56, 76.36 155.05, 0.63 90.73 M193.84 258.68 C142.27 212.91, 90.3 166.15, 0.63 90.73 M195.71 255 C129.06 197.54, 62.26 136.6, 0.99 85.74 M195.71 255 C142.2 208.17, 87.7 160.21, 0.99 85.74 M197.58 251.33 C127.26 189.51, 56.75 129.72, 0.6 80.1 M197.58 251.33 C126.57 189.04, 54.69 125.01, 0.6 80.1 M198.69 247 C142.81 199.11, 87.85 150.24, 0.96 75.11 M198.69 247 C155.23 209.62, 111.75 170.67, 0.96 75.11 M199.81 242.67 C138.67 188.1, 73.08 132.58, 0.56 69.47 M199.81 242.67 C127.05 179.09, 52.22 114.37, 0.56 69.47 M200.17 237.68 C158.74 200.96, 116.22 162.77, 0.92 64.48 M200.17 237.68 C134.39 179.88, 67.49 122.45, 0.92 64.48 M199.77 232.04 C134.18 176.93, 68.49 120.87, 0.53 58.84 M199.77 232.04 C134.52 173.22, 67.01 116.18, 0.53 58.84 M200.13 227.05 C149.65 185.43, 100.66 142.88, 0.89 53.85 M200.13 227.05 C146.38 179.84, 92.41 134.1, 0.89 53.85 M199.74 221.41 C136.72 167.23, 76.09 111.38, 0.49 48.21 M199.74 221.41 C155.13 184.38, 113 146.19, 0.49 48.21 M200.1 216.42 C151.76 173.38, 104.56 132.42, 0.85 43.22 M200.1 216.42 C122.12 146.78, 43.4 79.25, 0.85 43.22 M199.7 210.78 C123.26 143.26, 44.53 75.95, 0.46 37.58 M199.7 210.78 C142.76 159.22, 84.43 108.93, 0.46 37.58 M200.06 205.79 C151.66 162.25, 99.62 118.77, 0.82 32.59 M200.06 205.79 C160.02 169.29, 119.13 134.1, 0.82 32.59 M199.67 200.15 C147.68 154.9, 95.51 108.75, 0.42 26.95 M199.67 200.15 C126.02 135.35, 52.54 70.46, 0.42 26.95 M200.03 195.16 C137.18 142.61, 75.2 88.87, 0.78 21.96 M200.03 195.16 C137.23 143.4, 75.72 90.14, 0.78 21.96 M199.63 189.52 C123.59 122.96, 45.89 55.89, 1.9 17.63 M199.63 189.52 C127.45 126.71, 56.16 64.28, 1.9 17.63 M199.99 184.53 C155.44 146.28, 108.56 106.36, 4.52 14.61 M199.99 184.53 C153.98 146.49, 110.24 108.24, 4.52 14.61 M199.6 178.89 C157.79 140.09, 114.04 104.6, 6.39 10.94 M199.6 178.89 C141.79 127.69, 82.33 75.48, 6.39 10.94 M199.96 173.9 C157.32 136.78, 118.85 102.16, 8.26 7.26 M199.96 173.9 C158.91 137.48, 118.37 101.55, 8.26 7.26 M199.56 168.26 C159.73 135.32, 119.82 99.47, 12.4 5.55 M199.56 168.26 C131.86 108.76, 64.36 49.62, 12.4 5.55 M199.92 163.27 C155.42 126.51, 113.53 89.49, 15.78 3.19 M199.92 163.27 C156.35 123.91, 112.85 87.27, 15.78 3.19 M199.53 157.63 C133.64 102.51, 67.21 44.18, 19.91 1.49 M199.53 157.63 C128.33 94.49, 57.14 33, 19.91 1.49 M199.89 152.64 C154.3 113.06, 113.23 74.78, 24.8 0.43 M199.89 152.64 C136.28 97.95, 71.18 41.04, 24.8 0.43 M199.5 147 C148.82 105.41, 99.16 60.29, 30.44 0.04 M199.5 147 C164.39 115.13, 128.67 85.08, 30.44 0.04 M199.86 142.01 C164.27 113.9, 133.41 86.39, 35.33 -1.01 M199.86 142.01 C163.46 110.2, 127.55 79.54, 35.33 -1.01 M200.22 137.02 C141.67 84.6, 84.05 36.53, 41.73 -0.75 M200.22 137.02 C151.27 95.82, 102.03 53.43, 41.73 -0.75 M199.82 131.38 C170.92 104.01, 137.41 76.87, 48.12 -0.49 M199.82 131.38 C153.4 89.18, 105.42 48.2, 48.12 -0.49 M200.18 126.39 C150.68 79.59, 97.43 34.12, 53.77 -0.88 M200.18 126.39 C152.53 85.89, 102.49 43.29, 53.77 -0.88 M199.79 120.75 C146.58 77.84, 97.79 31.63, 60.17 -0.62 M199.79 120.75 C162.56 87.34, 123.21 52.62, 60.17 -0.62 M200.15 115.76 C148.97 72.99, 97.74 27.29, 66.56 -0.36 M200.15 115.76 C170.71 90.15, 141.67 64.83, 66.56 -0.36 M199.75 110.12 C150.1 69.14, 103.06 27.47, 72.21 -0.75 M199.75 110.12 C162.95 77.97, 127.11 46.11, 72.21 -0.75 M200.11 105.13 C152.05 64.19, 103.55 21.73, 78.6 -0.49 M200.11 105.13 C170.54 79, 139.74 53.73, 78.6 -0.49 M199.72 99.49 C168.09 71.32, 136.87 45.2, 85 -0.23 M199.72 99.49 C174.02 79.81, 150.5 58.19, 85 -0.23 M200.08 94.5 C167.28 69.04, 136.29 38.43, 90.64 -0.63 M200.08 94.5 C156.76 57.21, 113.41 18.69, 90.64 -0.63 M199.68 88.86 C165.88 59.17, 129.64 28.88, 97.04 -0.36 M199.68 88.86 C175.36 65.78, 149.67 44.35, 97.04 -0.36 M200.04 83.87 C167.32 55.7, 132.72 26.27, 102.69 -0.76 M200.04 83.87 C163.06 52.99, 126.86 20.88, 102.69 -0.76 M199.65 78.23 C165.11 48.83, 130.75 15.97, 109.08 -0.5 M199.65 78.23 C170.53 53.62, 142.47 29.9, 109.08 -0.5 M200.01 73.24 C180.86 55.96, 160.44 39.77, 115.48 -0.24 M200.01 73.24 C181.75 57.57, 163.64 42.63, 115.48 -0.24 M199.61 67.6 C183.05 53.8, 166.05 39.05, 121.12 -0.63 M199.61 67.6 C182.26 52.2, 164 37.07, 121.12 -0.63 M199.97 62.61 C183.26 47.72, 170.51 36.15, 127.52 -0.37 M199.97 62.61 C183.63 46.27, 165.21 32.75, 127.52 -0.37 M199.58 56.97 C185.32 46.82, 170.03 32.5, 133.92 -0.11 M199.58 56.97 C174.5 35.27, 150.39 14.25, 133.92 -0.11 M199.94 51.98 C181.19 36.8, 163.4 19.19, 139.56 -0.5 M199.94 51.98 C178.8 35.34, 158.76 17.35, 139.56 -0.5 M199.55 46.34 C180.25 31.17, 161.1 13.01, 145.96 -0.24 M199.55 46.34 C177.6 27.53, 157.38 9.1, 145.96 -0.24 M199.91 41.35 C183.92 29.71, 170.17 15.83, 152.36 0.02 M199.91 41.35 C187.83 29.98, 175.18 19.04, 152.36 0.02 M199.51 35.71 C192.55 26.96, 182.35 20.31, 158 -0.37 M199.51 35.71 C186.73 25.28, 174.92 13.96, 158 -0.37 M199.12 30.07 C190.26 23.96, 183.16 13.81, 164.4 -0.11 M199.12 30.07 C186.26 20.25, 174.62 9.5, 164.4 -0.11 M198.72 24.42 C189.95 16.92, 181.45 8.9, 170.04 -0.51 M198.72 24.42 C187.47 15.78, 177.6 5.66, 170.04 -0.51 M197.57 18.12 C192.7 12.57, 184.83 9.36, 177.95 1.07 M197.57 18.12 C191.04 11.14, 183.55 4.74, 177.95 1.07" stroke="#ffc9c9" stroke-width="0.5" fill="none"/><path d="M32 0 C79.14 -2.25, 123.26 -1.17, 167.49 0 M32 0 C86.4 1.39, 138.86 0.5, 167.49 0 M167.49 0 C189.6 1.68, 198.76 10.29, 199.49 32 M167.49 0 C190.41 -0.19, 201.43 12.6, 199.49 32 M199.49 32 C199.49 94.79, 200.63 155.94, 199.49 237.85 M199.49 32 C199.16 95.34, 198.35 160.81, 199.49 237.85 M199.49 237.85 C198.7 259.07, 187.2 271.6, 167.49 269.85 M199.49 237.85 C200.63 257.13, 189.27 270.73, 167.49 269.85 M167.49 269.85 C132.21 268.59, 93.36 269.36, 32 269.85 M167.49 269.85 C123.21 268.15, 76.9 268.9, 32 269.85 M32 269.85 C9.64 268.35, 1.08 261.09, 0 237.85 M32 269.85 C8.81 269.79, 1.97 260.9, 0 237.85 M0 237.85 C1.92 178.62, 0.75 122.02, 0 32 M0 237.85 C0.62 192.99, 0.83 147.58, 0 32 M0 32 C-1.94 12.34, 10.35 1.82, 32 0 M0 32 C-1.83 8.46, 12.19 2.29, 32 0" stroke="#1e1e1e" stroke-width="1" fill="none"/></g><g transform="translate(1000.9153781062687 134.92373090029298) rotate(0 15.712028503417969 10)"><switch style="white-space: pre;"><text x="15.712028503417969" y="0" font-family="Virgil, Segoe UI Emoji" font-size="16px" fill="#1e1e1e" text-anchor="middle" style="white-space: pre;" direction="ltr" dominant-baseline="text-before-edge" id="trsvg17-uk" systemLanguage="uk"><tspan id="trsvg8-uk">&#x412;&#x41C;&#x41C;</tspan></text><text x="15.712028503417969" y="0" font-family="Virgil, Segoe UI Emoji" font-size="16px" fill="#1e1e1e" text-anchor="middle" style="white-space: pre;" direction="ltr" dominant-baseline="text-before-edge" id="trsvg17"><tspan id="trsvg8">LLM</tspan></text></switch></g><g stroke-linecap="round" transform="translate(1206.9662412726 109.2653163052156) rotate(0 99.74718677271665 34.21280319257431)"><path d="M4.55 3.96 C4.55 3.96, 4.55 3.96, 4.55 3.96 M4.55 3.96 C4.55 3.96, 4.55 3.96, 4.55 3.96 M0.36 14.88 C5.64 9.45, 7.95 5.33, 12.82 0.54 M0.36 14.88 C3.96 11.07, 7.47 5.78, 12.82 0.54 M0.75 20.53 C7.35 13.69, 11.91 6.46, 18.46 0.15 M0.75 20.53 C8.42 13.18, 14.35 3.98, 18.46 0.15 M0.49 26.93 C8.93 18.03, 18.53 5.79, 24.11 -0.24 M0.49 26.93 C9.25 17.2, 18.21 8.39, 24.11 -0.24 M0.23 33.32 C11.5 21.92, 20.75 10, 29.09 0.12 M0.23 33.32 C8.79 21.72, 20.11 10.35, 29.09 0.12 M0.62 38.97 C13.43 26, 21.62 12.91, 34.74 -0.28 M0.62 38.97 C12.05 26.91, 21.86 13.02, 34.74 -0.28 M0.36 45.36 C16.47 26.37, 30.44 9.27, 39.72 0.08 M0.36 45.36 C8.3 34.45, 16.61 26.66, 39.72 0.08 M0.76 51.01 C14.63 32.65, 29.73 19.52, 44.71 0.44 M0.76 51.01 C11.95 37.8, 21.86 26.06, 44.71 0.44 M1.15 56.65 C18.81 36.47, 34.74 16.03, 50.35 0.05 M1.15 56.65 C15.7 41.02, 29.87 24.11, 50.35 0.05 M2.2 61.54 C21.29 39.76, 41.14 16.46, 55.34 0.41 M2.2 61.54 C20.5 40.95, 36.04 21.42, 55.34 0.41 M5.22 64.16 C20.73 44.11, 40.47 24.58, 60.98 0.01 M5.22 64.16 C17.28 49.57, 28.33 35.61, 60.98 0.01 M8.24 66.79 C22.7 49.85, 37.48 31.1, 65.97 0.37 M8.24 66.79 C26.87 46.3, 45.68 25.14, 65.97 0.37 M12.57 67.9 C24.85 52.92, 36.91 39.18, 71.61 -0.02 M12.57 67.9 C35.41 40.97, 58.78 14.77, 71.61 -0.02 M17.56 68.26 C31.68 51.47, 45.62 38.59, 76.6 0.34 M17.56 68.26 C40.18 41.89, 63.72 14.58, 76.6 0.34 M22.54 68.62 C42.51 46.21, 61.52 21.41, 82.24 -0.06 M22.54 68.62 C35.18 52.44, 49.89 36.91, 82.24 -0.06 M28.19 68.23 C42.91 48.39, 63.78 30.02, 87.23 0.3 M28.19 68.23 C46.81 49.04, 62.97 29.36, 87.23 0.3 M33.17 68.59 C51.25 48.22, 69.64 28.14, 92.87 -0.09 M33.17 68.59 C51.31 47.32, 67.25 27.79, 92.87 -0.09 M38.16 68.95 C57.38 44.28, 79.03 18.72, 97.86 0.27 M38.16 68.95 C58.36 45.73, 77.77 22.3, 97.86 0.27 M43.8 68.55 C67.84 40.69, 90.05 13.22, 103.5 -0.13 M43.8 68.55 C65.64 45.38, 86.89 19.59, 103.5 -0.13 M48.79 68.91 C65.26 53.89, 77.69 35.85, 108.49 0.23 M48.79 68.91 C62.59 54.12, 74.92 37.73, 108.49 0.23 M54.43 68.52 C72.72 48.03, 90.4 28.05, 114.13 -0.16 M54.43 68.52 C74.86 44.2, 96.21 20.19, 114.13 -0.16 M59.42 68.88 C79.32 46.4, 96.27 26.67, 119.12 0.2 M59.42 68.88 C72.77 52.53, 87.95 35.63, 119.12 0.2 M65.06 68.48 C87.56 45.75, 106.45 21.84, 124.76 -0.19 M65.06 68.48 C78.38 53.39, 92.26 36.76, 124.76 -0.19 M70.05 68.84 C82.61 53.25, 96.72 37.73, 129.75 0.17 M70.05 68.84 C84.76 50.59, 99.78 34.29, 129.75 0.17 M75.69 68.45 C89.19 53.41, 100.49 38.58, 135.39 -0.23 M75.69 68.45 C92.04 51.09, 107.23 32.83, 135.39 -0.23 M80.68 68.81 C92.93 55.97, 106.67 42.02, 140.38 0.13 M80.68 68.81 C99.59 48.62, 115.36 28.21, 140.38 0.13 M86.32 68.41 C105.11 45.66, 124.38 24.01, 146.02 -0.26 M86.32 68.41 C107 44.93, 127.68 20.17, 146.02 -0.26 M91.31 68.77 C110.84 47.29, 127.69 25.33, 151.01 0.1 M91.31 68.77 C103.64 54.3, 115.87 40.3, 151.01 0.1 M96.95 68.38 C117.55 44.28, 139.78 18.07, 156 0.46 M96.95 68.38 C118.98 45.21, 139.33 20.78, 156 0.46 M101.94 68.74 C125.37 43.35, 145.03 16.16, 161.64 0.06 M101.94 68.74 C124.44 42.08, 148.4 14.32, 161.64 0.06 M107.58 68.35 C131 43.64, 150.36 18.57, 166.63 0.42 M107.58 68.35 C127.45 45.71, 147.23 22.87, 166.63 0.42 M112.57 68.71 C133.64 44.58, 155.1 19.14, 172.27 0.03 M112.57 68.71 C127.74 50.35, 143.39 33.92, 172.27 0.03 M118.21 68.31 C137.52 46.83, 157.86 26.38, 177.26 0.39 M118.21 68.31 C138.56 47.42, 157.21 23.99, 177.26 0.39 M123.2 68.67 C140.86 48.52, 157.51 27.86, 182.9 -0.01 M123.2 68.67 C144.77 46.26, 163.31 22.38, 182.9 -0.01 M128.84 68.28 C143.92 52.15, 157.82 33.46, 187.23 1.11 M128.84 68.28 C146.98 46.16, 166.59 25.77, 187.23 1.11 M133.83 68.64 C148.24 56.81, 158.58 42.08, 191.56 2.22 M133.83 68.64 C146.05 54.53, 158.68 41.03, 191.56 2.22 M139.47 68.24 C161.67 43.97, 180.64 18.73, 194.58 4.85 M139.47 68.24 C157.01 47.8, 174.75 27.66, 194.58 4.85 M144.46 68.6 C165.49 47.4, 183.45 24.82, 197.6 7.47 M144.46 68.6 C155.47 56.16, 166.35 43.4, 197.6 7.47 M150.1 68.21 C160.69 55.75, 169.9 45, 199.31 11.6 M150.1 68.21 C164.48 51.3, 180.31 34.5, 199.31 11.6 M155.09 68.57 C173.12 46.7, 188.31 29.27, 199.05 18 M155.09 68.57 C164.66 57.53, 175.14 44.13, 199.05 18 M160.08 68.93 C174.23 52.53, 187.15 39.3, 198.79 24.4 M160.08 68.93 C168.09 58.7, 176.39 48.69, 198.79 24.4 M165.72 68.53 C171.43 61.69, 182.16 52.39, 199.18 30.04 M165.72 68.53 C179.42 53.81, 190.84 38.43, 199.18 30.04 M170.71 68.89 C179.37 58.48, 192.91 44.55, 198.92 36.44 M170.71 68.89 C175.61 63.03, 182.31 55.12, 198.92 36.44 M176.35 68.5 C184.64 59.75, 192.72 50.55, 198.66 42.84 M176.35 68.5 C184.08 59.14, 191.46 50.98, 198.66 42.84 M181.34 68.86 C185.79 60.62, 190.57 56.29, 198.4 49.24 M181.34 68.86 C187.57 61.94, 194.33 54.23, 198.4 49.24 M187.64 67.71 C188.79 65.74, 193.13 60.57, 198.79 54.88 M187.64 67.71 C191.33 63.23, 196.21 58.02, 198.79 54.88" stroke="#b2f2bb" stroke-width="0.5" fill="none"/><path d="M17.11 0 C62.13 2.64, 112.98 2.79, 182.39 0 M17.11 0 C64.38 -0.42, 112.22 1.32, 182.39 0 M182.39 0 C192.58 -1, 198.15 4.34, 199.49 17.11 M182.39 0 C195.64 -1.43, 198.96 4.65, 199.49 17.11 M199.49 17.11 C201.17 26.07, 199.12 40.35, 199.49 51.32 M199.49 17.11 C198.68 26.92, 198.79 35.37, 199.49 51.32 M199.49 51.32 C199.14 60.79, 192.86 67.24, 182.39 68.43 M199.49 51.32 C198.15 63.67, 193.59 70.37, 182.39 68.43 M182.39 68.43 C139.33 66.46, 95.92 69, 17.11 68.43 M182.39 68.43 C134.66 67.17, 86.79 67.42, 17.11 68.43 M17.11 68.43 C5.08 68.29, 0.09 63.22, 0 51.32 M17.11 68.43 C4.64 66.26, 1.11 64.4, 0 51.32 M0 51.32 C0.29 44.96, -1.12 33.19, 0 17.11 M0 51.32 C-0.44 40.36, 0.69 30.99, 0 17.11 M0 17.11 C-0.56 5.63, 7.45 0.53, 17.11 0 M0 17.11 C-0.96 4.05, 4.36 -1, 17.11 0" stroke="#1e1e1e" stroke-width="1" fill="none"/></g><g transform="translate(1280.697375799223 133.47811949778998) rotate(0 26.01605224609375 10)"><switch style="white-space: pre;"><text x="26.01605224609375" y="0" font-family="Virgil, Segoe UI Emoji" font-size="16px" fill="#1e1e1e" text-anchor="middle" style="white-space: pre;" direction="ltr" dominant-baseline="text-before-edge" id="trsvg18-uk" systemLanguage="uk"><tspan id="trsvg9-uk">&#x412;&#x456;&#x434;&#x43F;&#x43E;&#x432;&#x456;&#x434;&#x44C;</tspan></text><text x="26.01605224609375" y="0" font-family="Virgil, Segoe UI Emoji" font-size="16px" fill="#1e1e1e" text-anchor="middle" style="white-space: pre;" direction="ltr" dominant-baseline="text-before-edge" id="trsvg18"><tspan id="trsvg9">Answer</tspan></text></switch></g><g stroke-linecap="round"><g transform="translate(103.00100022770187 76.97999498264551) rotate(0 0.9929468985606604 66.53667089432514)"><path d="M0.28 0.12 C0.57 22.26, 1.45 110.81, 1.71 132.95" stroke="#1e1e1e" stroke-width="4.5" fill="none" stroke-dasharray="8 12"/></g><g transform="translate(103.00100022770187 76.97999498264551) rotate(0 0.9929468985606604 66.53667089432514)"><path d="M-8.63 104.47 C-6.02 112.42, -3.02 119.97, 1.8 133.23" stroke="#1e1e1e" stroke-width="4.5" fill="none"/></g><g transform="translate(103.00100022770187 76.97999498264551) rotate(0 0.9929468985606604 66.53667089432514)"><path d="M11.89 104.24 C8.88 112.32, 6.26 119.92, 1.8 133.23" stroke="#1e1e1e" stroke-width="4.5" fill="none"/></g></g><mask/><g stroke-linecap="round"><g transform="translate(210.9399849479363 250.4533632830222) rotate(0 52.36641515329143 0.1273637548999318)"><path d="M-0.2 0.11 C17.24 0.11, 87.43 0.15, 104.94 0.15" stroke="#1e1e1e" stroke-width="4.5" fill="none" stroke-dasharray="8 12"/></g><g transform="translate(210.9399849479363 250.4533632830222) rotate(0 52.36641515329143 0.1273637548999318)"><path d="M76.94 10.19 C87.8 6.18, 98.48 2.91, 104.52 0.04" stroke="#1e1e1e" stroke-width="4.5" fill="none"/></g><g transform="translate(210.9399849479363 250.4533632830222) rotate(0 52.36641515329143 0.1273637548999318)"><path d="M76.95 -10.33 C87.82 -6.5, 98.5 -1.91, 104.52 0.04" stroke="#1e1e1e" stroke-width="4.5" fill="none"/></g></g><mask/><g stroke-linecap="round"><g transform="translate(414.289322233378 496.2073017085561) rotate(0 -0.31524861882252253 -34.86602554807257)"><path d="M0.29 -0.07 C0.18 -11.67, -0.66 -58.12, -0.92 -69.66" stroke="#1e1e1e" stroke-width="4.5" fill="none" stroke-dasharray="8 12"/></g><g transform="translate(414.289322233378 496.2073017085561) rotate(0 -0.31524861882252253 -34.86602554807257)"><path d="M9.76 -41.59 C7.2 -47.92, 5.72 -52.6, -1.23 -69.69" stroke="#1e1e1e" stroke-width="4.5" fill="none"/></g><g transform="translate(414.289322233378 496.2073017085561) rotate(0 -0.31524861882252253 -34.86602554807257)"><path d="M-10.76 -41.18 C-9.12 -47.65, -6.42 -52.42, -1.23 -69.69" stroke="#1e1e1e" stroke-width="4.5" fill="none"/></g></g><mask/><g stroke-linecap="round"><g transform="translate(414.289322233378 350.68242052324) rotate(0 -0.055105653550640454 -34.803635181894435)"><path d="M0.02 0.06 C0 -11.5, -0.16 -58.08, -0.13 -69.67" stroke="#1e1e1e" stroke-width="4.5" fill="none" stroke-dasharray="8 12"/></g><g transform="translate(414.289322233378 350.68242052324) rotate(0 -0.055105653550640454 -34.803635181894435)"><path d="M10.27 -41.72 C6.7 -49.28, 4.07 -58.48, -0.17 -69.29" stroke="#1e1e1e" stroke-width="4.5" fill="none"/></g><g transform="translate(414.289322233378 350.68242052324) rotate(0 -0.055105653550640454 -34.803635181894435)"><path d="M-10.25 -41.71 C-7.82 -49.27, -4.43 -58.48, -0.17 -69.29" stroke="#1e1e1e" stroke-width="4.5" fill="none"/></g></g><mask/><g stroke-linecap="round"><g transform="translate(207.56689150380134 42.2853213225701) rotate(0 354.0828917490637 -0.022524278534888253)"><path d="M0.09 -0.14 C118.11 -0.12, 590.13 0.08, 708.08 0.09" stroke="#1e1e1e" stroke-width="4.5" fill="none" stroke-dasharray="8 12"/></g><g transform="translate(207.56689150380134 42.2853213225701) rotate(0 354.0828917490637 -0.022524278534888253)"><path d="M679.63 10.75 C688.13 7.28, 695.96 4.55, 708.3 0.44" stroke="#1e1e1e" stroke-width="4.5" fill="none"/></g><g transform="translate(207.56689150380134 42.2853213225701) rotate(0 354.0828917490637 -0.022524278534888253)"><path d="M679.63 -9.78 C688.13 -7.37, 695.96 -4.22, 708.3 0.44" stroke="#1e1e1e" stroke-width="4.5" fill="none"/></g></g><mask/><g stroke-linecap="round"><g transform="translate(821.9517375531932 136.175516757095) rotate(0 47.811404921889675 0.011217298769224726)"><path d="M0.2 0.24 C16.11 0.2, 79.58 -0.18, 95.42 -0.22" stroke="#1e1e1e" stroke-width="4.5" fill="none" stroke-dasharray="8 12"/></g><g transform="translate(821.9517375531932 136.175516757095) rotate(0 47.811404921889675 0.011217298769224726)"><path d="M67.74 10.19 C75.28 6.65, 84.07 3.51, 95.43 -0.07" stroke="#1e1e1e" stroke-width="4.5" fill="none"/></g><g transform="translate(821.9517375531932 136.175516757095) rotate(0 47.811404921889675 0.011217298769224726)"><path d="M67.65 -10.33 C75.23 -7.73, 84.05 -4.72, 95.43 -0.07" stroke="#1e1e1e" stroke-width="4.5" fill="none"/></g></g><mask/><g stroke-linecap="round"><g transform="translate(826.7704424142742 249.48962234802013) rotate(0 44.714755470044224 0.16807943993075014)"><path d="M-0.21 0.26 C14.74 0.23, 74.69 0.08, 89.64 0.08" stroke="#1e1e1e" stroke-width="4.5" fill="none" stroke-dasharray="8 12"/></g><g transform="translate(826.7704424142742 249.48962234802013) rotate(0 44.714755470044224 0.16807943993075014)"><path d="M61.95 10.4 C69.76 7.21, 78.21 4.75, 89.28 0.48" stroke="#1e1e1e" stroke-width="4.5" fill="none"/></g><g transform="translate(826.7704424142742 249.48962234802013) rotate(0 44.714755470044224 0.16807943993075014)"><path d="M61.92 -10.12 C69.78 -7.35, 78.24 -3.86, 89.28 0.48" stroke="#1e1e1e" stroke-width="4.5" fill="none"/></g></g><mask/><g stroke-linecap="round"><g transform="translate(519.3370841486062 248.52588141301806) rotate(0 52.49646036874242 0.233115008974778)"><path d="M-0.23 0.28 C17.35 0.33, 87.72 0.24, 105.22 0.17" stroke="#1e1e1e" stroke-width="4.5" fill="none" stroke-dasharray="8 12"/></g><g transform="translate(519.3370841486062 248.52588141301806) rotate(0 52.49646036874242 0.233115008974778)"><path d="M77.59 10.83 C83.39 7.93, 88.84 5.83, 104.91 0.02" stroke="#1e1e1e" stroke-width="4.5" fill="none"/></g><g transform="translate(519.3370841486062 248.52588141301806) rotate(0 52.49646036874242 0.233115008974778)"><path d="M77.54 -9.69 C83.32 -8.22, 88.78 -5.96, 104.91 0.02" stroke="#1e1e1e" stroke-width="4.5" fill="none"/></g></g><mask/><g stroke-linecap="round"><g transform="translate(1116.3745931380847 136.2500622409558) rotate(0 45.691277893639494 0.18790746220349774)"><path d="M0.09 0.16 C15.34 0.22, 76.15 0.24, 91.3 0.18" stroke="#1e1e1e" stroke-width="4.5" fill="none" stroke-dasharray="8 12"/></g><g transform="translate(1116.3745931380847 136.2500622409558) rotate(0 45.691277893639494 0.18790746220349774)"><path d="M63.42 10.9 C69.65 8.01, 75.12 6.52, 91.36 0.17" stroke="#1e1e1e" stroke-width="4.5" fill="none"/></g><g transform="translate(1116.3745931380847 136.2500622409558) rotate(0 45.691277893639494 0.18790746220349774)"><path d="M63.39 -9.62 C69.59 -8.02, 75.07 -5.02, 91.36 0.17" stroke="#1e1e1e" stroke-width="4.5" fill="none"/></g></g><mask/></svg>
